<svg width="456" height="150" viewBox="0 0 456 150" fill="none" xmlns="http://www.w3.org/2000/svg">
<path d="M67.5299 0.00373833C63.8 -0.0534277 55.6665 0.486479 50.3671 5.73944C45.1566 10.9098 44.1336 19.1799 43.9556 23.1752C40.2193 26.98 37.0168 31.115 34.0875 35.6947C24.2829 51.0725 20.0065 72.0653 23.4187 90.0092C25.2678 99.7338 29.1121 109.033 34.5259 117.322C43.3012 130.756 54.294 140.462 67.5045 149.386C69.1757 150.504 71.4568 150.053 72.5752 148.376C73.6935 146.706 73.2424 144.425 71.5712 143.314C62.078 137.197 53.3345 129.753 46.2178 121.032C49.738 119.444 53.8683 116.795 56.2511 112.571C60.9723 104.186 57.0009 92.7722 57.0009 92.7722C57.0009 92.7722 45.3726 94.9509 40.6387 103.342C39.4505 105.438 38.8214 107.737 38.5291 109.992C36.4259 106.397 34.6022 102.618 33.0835 98.6794C32.9691 98.3936 32.8548 98.1078 32.7467 97.8156C36.5275 97.3836 41.2106 96.1069 44.7055 92.6896C51.6062 85.9313 51.2376 73.3483 51.2376 73.3483C51.2376 73.3483 39.6538 71.7286 32.7467 78.4933C31.3234 79.8844 30.2114 81.5295 29.3345 83.2508C28.9469 79.8399 28.8135 76.3909 28.9405 72.9355C33.0073 73.4118 40.429 73.5579 45.9445 69.6516C53.9382 63.9857 54.904 51.9427 54.904 51.9427C54.904 51.9427 42.9136 49.078 34.9326 54.7311C33.2551 55.9189 31.8826 57.3989 30.7642 58.9805C31.8699 54.1213 33.4394 49.3575 35.4409 44.8096C37.7857 45.8767 46.294 49.3066 53.6141 46.4356C62.1924 43.0755 65.8842 32.3155 65.8842 32.3155C65.8842 32.3155 55.6665 27.0181 47.0883 30.3845C44.5466 31.3818 42.4497 33.0142 40.7467 34.8181C42.3035 32.3473 44.0065 29.9653 45.8492 27.7041C46.4211 27.0054 47.0247 26.294 47.6538 25.5826C51.7968 25.4365 58.5069 24.4202 63.101 19.8659C70.1669 12.8598 69.5315 0.111719 69.5315 0.111719C69.5315 0.111719 68.7754 0.0227926 67.5299 0.00373833ZM388.472 0.0100902C387.227 0.0291461 386.47 0.118071 386.47 0.118071C386.47 0.118071 385.829 12.8662 392.901 19.8786C397.495 24.4392 404.23 25.4428 408.367 25.5953C414.537 32.5759 419.29 40.9857 422.467 49.5734C423.643 52.762 424.405 55.8935 425.231 59.171C425.924 61.9531 426.375 64.9385 426.642 67.9493L427.017 76.7783L426.661 82.0948C423.884 108.512 406.41 128.959 384.405 143.314C382.734 144.432 382.289 146.706 383.414 148.376C384.539 150.053 386.807 150.498 388.472 149.38C397.304 143.333 405.679 136.682 412.758 128.762C415.084 130.68 422.493 136.149 430.454 135.279C440.087 134.243 446.887 124.334 446.887 124.334C446.887 124.334 438.073 116.122 428.44 117.176C424.71 117.576 421.4 119.31 418.75 121.279C419.404 120.365 420.04 119.431 420.663 118.472C422.2 116.109 423.649 113.689 424.983 111.212C426.509 111.847 436.656 115.766 444.605 111.345C453.228 106.549 455.992 93.7631 455.992 93.7631C455.992 93.7631 444.79 88.7515 436.167 93.5471C433.765 94.8937 431.821 96.8564 430.257 98.978C430.41 98.5206 430.55 98.0569 430.696 97.5869C431.643 94.3538 432.367 91.0826 432.856 87.8114C434.178 87.7987 445.234 87.5129 451.207 80.8625C457.568 73.7993 455.763 62.2009 455.763 62.2009C455.763 62.2009 443.639 62.0738 437.285 69.1434C435.525 71.0998 434.388 73.4055 433.67 75.7049C433.613 72.1034 433.295 68.5209 432.729 64.9639C434.661 64.208 444.917 59.8697 447.802 51.841C450.985 42.9612 444.516 32.9316 444.516 32.9316C444.516 32.9316 432.875 37.289 429.698 46.1752C429.228 47.4773 428.955 48.8049 428.834 50.126C427.837 47.4265 426.699 44.7651 425.416 42.1608C427.252 39.9631 434.979 30.0987 433.911 21.6254C432.704 12.0214 422.696 5.40914 422.696 5.40914C422.696 5.40914 414.658 14.3716 415.865 23.9819C416.075 25.6334 416.475 27.2658 417.003 28.8283C415.446 26.8974 413.787 25.0427 412.04 23.2641C411.868 19.2942 410.871 10.9479 405.628 5.74579C400.329 0.492829 392.208 -0.0470759 388.472 0.0100902ZM33.3123 5.40279C33.3123 5.40279 23.298 12.0214 22.0843 21.6254C21.2964 27.8946 25.3123 34.9134 28.2098 39.0421C31.4124 32.9824 35.4409 27.0117 40.2575 21.835C40.1876 13.0822 33.3123 5.40279 33.3123 5.40279ZM401.212 29.3174C395.207 29.6858 390.124 32.3218 390.124 32.3218C390.124 32.3218 393.81 43.0819 402.394 46.442C407.694 48.5254 413.628 47.2931 417.384 46.0482C417.288 45.8322 417.187 45.6226 417.091 45.4066C414.594 40.0457 411.271 34.6276 407.376 29.8764C405.317 29.3174 403.214 29.1904 401.212 29.3174ZM11.4854 32.9253C11.4854 32.9253 5.0168 42.9548 8.20028 51.8283C10.2718 57.6275 16.1939 61.5085 20.0573 63.4903C21.1757 57.0051 22.9612 50.6215 25.5855 44.5047C21.6713 36.7491 11.4854 32.9253 11.4854 32.9253ZM407.802 51.2249C403.957 51.2694 401.104 51.9427 401.104 51.9427C401.104 51.9427 402.07 63.9857 410.064 69.6516C414.238 72.6179 419.519 73.2403 423.592 73.1705C423.484 69.9691 423.166 66.698 422.639 63.5919C422.105 60.4668 421.387 57.3671 420.478 54.3309C416.494 51.7775 411.652 51.1804 407.802 51.2249ZM0.2384 62.2009C0.2384 62.2009 -1.57256 73.7993 4.78804 80.8625C8.89924 85.4486 15.4378 87.0111 19.5363 87.5447C19.4918 87.2144 19.4537 86.8841 19.4219 86.5538C18.7928 80.9959 18.6784 75.3555 19.2122 69.7341C19.0533 69.5372 18.8754 69.334 18.7166 69.1434C12.3623 62.0675 0.2384 62.2009 0.2384 62.2009ZM408.805 73.1895C406.404 73.1197 404.771 73.3483 404.771 73.3483C404.771 73.3483 404.402 85.9313 411.303 92.6896C413.781 95.1224 416.869 96.4626 419.798 97.1995C421.952 91.4002 423.268 85.258 423.573 78.8046C423.471 78.6966 423.37 78.6013 423.268 78.4933C418.947 74.263 412.802 73.3102 408.805 73.1895ZM9.76342 91.5019C4.37502 91.8004 0.00329271 93.7568 0.00329271 93.7568C0.00329271 93.7568 2.76739 106.543 11.3965 111.345C16.9437 114.438 23.5712 113.447 27.5871 112.355C24.5498 106.619 22.186 100.521 20.7054 94.0871C20.4195 93.8965 20.1272 93.7123 19.8286 93.5408C16.5942 91.7432 12.9977 91.324 9.76342 91.5019ZM399.014 92.7722C399.014 92.7722 395.036 104.186 399.763 112.571C401.435 115.55 403.97 117.735 406.562 119.329C410.311 114.908 413.59 110.164 416.24 105.146C415.992 104.529 415.7 103.926 415.376 103.342C410.636 94.9509 399.014 92.7722 399.014 92.7722ZM25.7634 117.081C16.8548 117.119 9.11529 124.334 9.11529 124.334C9.11529 124.334 15.908 134.243 25.541 135.279C31.4251 135.927 37.0105 133.1 40.4608 130.813C36.9024 126.761 33.6109 122.435 30.7452 117.843C29.7221 117.525 28.661 117.297 27.5553 117.176C26.9517 117.106 26.3544 117.074 25.7634 117.081Z" fill="url(#paint0_linear_310_1843)"/>
<defs>
<linearGradient id="paint0_linear_310_1843" x1="228" y1="0" x2="228" y2="150" gradientUnits="userSpaceOnUse">
<stop stop-color="white"/>
<stop offset="1" stop-color="#999999"/>
</linearGradient>
</defs>
</svg>
