<svg width="199" height="49" viewBox="0 0 199 49" fill="none" xmlns="http://www.w3.org/2000/svg">
<rect width="199" height="49" rx="24.5" fill="white" fill-opacity="0.08"/>
<rect x="0.5" y="0.5" width="198" height="48" rx="24" stroke="white" stroke-opacity="0.12"/>
<path d="M35.1787 33.5049C34.6074 33.0742 34.4931 32.3623 34.7832 31.5098L36.497 26.4385L32.1465 23.3271C31.3906 22.791 31.0478 22.1494 31.2939 21.4551C31.5224 20.7871 32.164 20.4707 33.0693 20.4707H38.4043L40.0302 15.4082C40.3115 14.5293 40.8125 14.0283 41.5244 14.0283C42.2363 14.0283 42.7373 14.5293 43.0185 15.4082L44.6445 20.4707H49.9707C50.8935 20.4707 51.5263 20.7871 51.7636 21.4639C51.9922 22.1494 51.6582 22.791 50.9111 23.3271L46.5517 26.4385L48.2656 31.5098C48.5644 32.3623 48.4414 33.0742 47.8789 33.5049C47.2988 33.9443 46.5957 33.8213 45.8398 33.2676L41.5244 30.0947L37.209 33.2676C36.4619 33.8213 35.75 33.9443 35.1787 33.5049ZM63.8838 33.5049C63.3125 33.0742 63.1982 32.3623 63.4883 31.5098L65.2021 26.4385L60.8515 23.3271C60.0957 22.791 59.7529 22.1494 59.999 21.4551C60.2275 20.7871 60.8691 20.4707 61.7744 20.4707H67.1093L68.7353 15.4082C69.0166 14.5293 69.5175 14.0283 70.2295 14.0283C70.9414 14.0283 71.4424 14.5293 71.7236 15.4082L73.3496 20.4707H78.6758C79.5986 20.4707 80.2314 20.7871 80.4687 21.4639C80.6972 22.1494 80.3633 22.791 79.6162 23.3271L75.2568 26.4385L76.9707 31.5098C77.2695 32.3623 77.1465 33.0742 76.584 33.5049C76.0039 33.9443 75.3008 33.8213 74.5449 33.2676L70.2295 30.0947L65.914 33.2676C65.167 33.8213 64.455 33.9443 63.8838 33.5049ZM92.5888 33.5049C92.0175 33.0742 91.9033 32.3623 92.1933 31.5098L93.9072 26.4385L89.5566 23.3271C88.8008 22.791 88.458 22.1494 88.7041 21.4551C88.9326 20.7871 89.5742 20.4707 90.4795 20.4707H95.8144L97.4404 15.4082C97.7216 14.5293 98.2226 14.0283 98.9345 14.0283C99.6465 14.0283 100.147 14.5293 100.429 15.4082L102.055 20.4707H107.381C108.304 20.4707 108.936 20.7871 109.174 21.4639C109.402 22.1494 109.068 22.791 108.321 23.3271L103.962 26.4385L105.676 31.5098C105.975 32.3623 105.852 33.0742 105.289 33.5049C104.709 33.9443 104.006 33.8213 103.25 33.2676L98.9345 30.0947L94.6191 33.2676C93.872 33.8213 93.1601 33.9443 92.5888 33.5049ZM121.294 33.5049C120.723 33.0742 120.608 32.3623 120.898 31.5098L122.612 26.4385L118.262 23.3271C117.506 22.791 117.163 22.1494 117.409 21.4551C117.638 20.7871 118.279 20.4707 119.185 20.4707H124.52L126.145 15.4082C126.427 14.5293 126.928 14.0283 127.64 14.0283C128.352 14.0283 128.853 14.5293 129.134 15.4082L130.76 20.4707H136.086C137.009 20.4707 137.642 20.7871 137.879 21.4639C138.107 22.1494 137.773 22.791 137.026 23.3271L132.667 26.4385L134.381 31.5098C134.68 32.3623 134.557 33.0742 133.994 33.5049C133.414 33.9443 132.711 33.8213 131.955 33.2676L127.64 30.0947L123.324 33.2676C122.577 33.8213 121.865 33.9443 121.294 33.5049ZM149.999 33.5049C149.428 33.0742 149.313 32.3623 149.603 31.5098L151.317 26.4385L146.967 23.3271C146.211 22.791 145.868 22.1494 146.114 21.4551C146.343 20.7871 146.984 20.4707 147.89 20.4707H153.225L154.851 15.4082C155.132 14.5293 155.633 14.0283 156.345 14.0283C157.057 14.0283 157.558 14.5293 157.839 15.4082L159.465 20.4707H164.791C165.714 20.4707 166.347 20.7871 166.584 21.4639C166.812 22.1494 166.478 22.791 165.731 23.3271L161.372 26.4385L163.086 31.5098C163.385 32.3623 163.262 33.0742 162.699 33.5049C162.119 33.9443 161.416 33.8213 160.66 33.2676L156.345 30.0947L152.029 33.2676C151.282 33.8213 150.57 33.9443 149.999 33.5049Z" fill="#FFB515"/>
</svg>
