<svg width="21" height="21" viewBox="0 0 21 21" fill="none" xmlns="http://www.w3.org/2000/svg">
<path d="M10.0875 20.3696C15.6576 20.3696 20.1767 15.8504 20.1767 10.2821C20.1767 4.72172 15.6576 0.19458 10.0875 0.19458C4.52715 0.19458 0 4.72172 0 10.2821C0 15.8504 4.52715 20.3696 10.0875 20.3696Z" fill="#AF52DE"/>
<path d="M9.1083 11.1684C8.30475 11.8678 7.85196 12.7577 7.85196 13.5623C7.85196 13.78 7.8939 14.0226 8.01452 14.2448H4.4293C3.81758 14.2448 3.54883 13.9743 3.54883 13.5022C3.54883 11.9 5.29688 10.6133 7.08809 10.6133C7.8097 10.6133 8.51857 10.8183 9.1083 11.1684ZM16.7148 13.5623C16.7148 14.0043 16.4529 14.2448 15.6541 14.2448H9.65294C8.86212 14.2448 8.58243 14.0043 8.58243 13.5623C8.58243 12.3192 10.1584 10.6293 12.6633 10.6293C15.1566 10.6293 16.7148 12.3192 16.7148 13.5623ZM8.78302 8.01082C8.78302 9.0657 8.00431 9.88074 7.08809 9.88074C6.18165 9.88074 5.39845 9.0657 5.39845 8.01883C5.39845 7.00652 6.19317 6.20223 7.08809 6.20223C8.00431 6.20223 8.78302 6.99051 8.78302 8.01082ZM14.5971 7.62723C14.5971 8.83035 13.7127 9.77684 12.6633 9.77684C11.6023 9.77684 10.7215 8.83035 10.7215 7.63523C10.7215 6.47293 11.6059 5.54871 12.6633 5.54871C13.7047 5.54871 14.5971 6.4489 14.5971 7.62723Z" fill="white"/>
</svg>
