<svg width="21" height="21" viewBox="0 0 21 21" fill="none" xmlns="http://www.w3.org/2000/svg">
<g clip-path="url(#clip0_366_1850)">
<path d="M10.0875 20.9241C15.6576 20.9241 20.1767 16.4049 20.1767 10.8366C20.1767 5.27617 15.6576 0.749023 10.0875 0.749023C4.52715 0.749023 0 5.27617 0 10.8366C0 16.4049 4.52715 20.9241 10.0875 20.9241Z" fill="#28CD41"/>
<path d="M4.63477 14.5652V6.60556C4.63477 6.26064 4.91328 5.97412 5.25468 5.97412C5.59433 5.97412 5.8791 6.26416 5.8791 6.60556V10.4233L7.03262 9.26006C7.27402 9.01865 7.51543 8.88467 7.81992 8.88467C8.11816 8.88467 8.38086 9.00713 8.62051 9.26006L10.3117 11.0089C10.3588 11.064 10.3978 11.064 10.4431 11.0009L12.1865 9.2292L11.5201 8.5708C11.2416 8.30205 11.4031 7.88076 11.7996 7.78233L14.6312 7.06494C14.9949 6.96826 15.3328 7.28486 15.2344 7.64404L14.5072 10.4882C14.4008 10.899 13.976 11.0462 13.709 10.7712L13.0418 10.088L11.1789 11.9917C10.9322 12.2331 10.6633 12.3619 10.3685 12.3619C10.0783 12.3619 9.81914 12.2412 9.56973 11.9917L7.89453 10.2554C7.84922 10.2003 7.80215 10.2003 7.74707 10.2554L5.8791 12.1472V14.0873C5.8791 14.1556 5.90214 14.1867 5.96074 14.1867H14.8732C15.2146 14.1867 15.5012 14.4652 15.5012 14.8146C15.5012 15.1542 15.2146 15.4328 14.8732 15.4328H5.49258C4.97363 15.4328 4.63477 15.0921 4.63477 14.5652Z" fill="white"/>
</g>
<defs>
<clipPath id="clip0_366_1850">
<rect width="20.5381" height="20.1848" fill="white" transform="translate(0 0.739258)"/>
</clipPath>
</defs>
</svg>
