<svg width="21" height="21" viewBox="0 0 21 21" fill="none" xmlns="http://www.w3.org/2000/svg">
<g clip-path="url(#clip0_366_1830)">
<path d="M10.0875 20.175C15.6576 20.175 20.1767 15.6478 20.1767 10.0875C20.1767 4.51914 15.6576 0 10.0875 0C4.52715 0 0 4.51914 0 10.0875C0 15.6478 4.52715 20.175 10.0875 20.175Z" fill="#007AFF"/>
<path d="M6.5957 7.18408C6.5957 5.36494 8.13789 3.99756 10.0789 3.99756C12.0314 3.99756 13.5816 5.40674 13.5816 7.22412C13.5816 9.17881 12.2787 9.671 12.1045 13.0239C12.0947 13.2632 11.9326 13.4095 11.6871 13.4095H8.4707C8.24121 13.4095 8.09063 13.2632 8.07285 13.0239C7.88262 9.671 6.5957 9.13702 6.5957 7.18408ZM8.54922 14.7659C8.32285 14.7659 8.13555 14.5786 8.13555 14.3558C8.13555 14.1347 8.32285 13.9474 8.54922 13.9474H11.6263C11.8527 13.9474 12.0498 14.1347 12.0498 14.3558C12.0498 14.5786 11.8527 14.7659 11.6263 14.7659H8.54922ZM10.0904 16.1604C9.35098 16.1604 8.79883 15.8169 8.75 15.294H11.4256C11.367 15.8169 10.8316 16.1604 10.0904 16.1604Z" fill="white"/>
</g>
<defs>
<clipPath id="clip0_366_1830">
<rect width="20.5381" height="20.1848" fill="white"/>
</clipPath>
</defs>
</svg>
