<svg width="21" height="21" viewBox="0 0 21 21" fill="none" xmlns="http://www.w3.org/2000/svg">
<g clip-path="url(#clip0_366_1886)">
<path d="M10.0875 20.175C15.6576 20.175 20.1767 15.6478 20.1767 10.0875C20.1767 4.51914 15.6576 0 10.0875 0C4.52715 0 0 4.51914 0 10.0875C0 15.6478 4.52715 20.175 10.0875 20.175Z" fill="#FF2D55"/>
<path d="M7.68262 5.66943C8.77891 5.66943 9.6002 6.29522 10.0851 7.16573C10.5638 6.29522 11.4012 5.66943 12.4894 5.66943C14.157 5.66943 15.4025 6.94268 15.4025 8.74209C15.4025 11.5001 12.3949 13.8876 10.6131 15.0356C10.4498 15.1493 10.2439 15.2798 10.1029 15.2798C9.96192 15.2798 9.72852 15.1413 9.54922 15.0356C7.76288 13.9081 4.76953 11.5001 4.76953 8.74209C4.76953 6.94268 6.00703 5.66943 7.68262 5.66943Z" fill="white"/>
</g>
<defs>
<clipPath id="clip0_366_1886">
<rect width="20.5381" height="20.1848" fill="white"/>
</clipPath>
</defs>
</svg>
