<svg width="21" height="21" viewBox="0 0 21 21" fill="none" xmlns="http://www.w3.org/2000/svg">
<g clip-path="url(#clip0_366_1908)">
<path d="M10.0875 20.1848C15.6576 20.1848 20.1767 15.6656 20.1767 10.0973C20.1767 4.53691 15.6576 0.00976562 10.0875 0.00976562C4.52715 0.00976562 0 4.53691 0 10.0973C0 15.6656 4.52715 20.1848 10.0875 20.1848Z" fill="#007AFF"/>
<path d="M6.31172 15.4879C6.02442 15.4879 5.77344 15.2467 5.77344 14.9576V6.58594C5.77344 6.12813 5.99708 5.79278 6.43184 5.59844C6.80547 5.4209 7.13028 5.33301 7.90723 5.33301C9.71563 5.33301 10.8512 6.22266 12.5232 6.22266C13.3322 6.22266 13.7664 6.00957 14.0699 6.00957C14.5082 6.00957 14.6961 6.24375 14.6961 6.58516V11.4941C14.6961 11.9812 14.492 12.2953 14.0492 12.5109C13.6596 12.6857 13.333 12.7586 12.5703 12.7586C10.8355 12.7586 9.71153 11.8867 7.9543 11.8867C7.39258 11.8867 7.02129 11.9916 6.82246 12.0662V14.9576C6.82246 15.2564 6.61856 15.4879 6.31172 15.4879Z" fill="white"/>
</g>
<defs>
<clipPath id="clip0_366_1908">
<rect width="20.5381" height="20.1848" fill="white"/>
</clipPath>
</defs>
</svg>
