<svg xmlns="http://www.w3.org/2000/svg" width="14" height="17" viewBox="0 0 14 17" fill="none">
  <path d="M7.9707 16.3447C7.87044 16.3447 7.78158 16.3105 7.7041 16.2422C7.63118 16.1738 7.58789 16.085 7.57422 15.9756C7.46484 15.2373 7.34863 14.6152 7.22559 14.1094C7.10254 13.6081 6.94303 13.1956 6.74707 12.8721C6.55111 12.5485 6.29134 12.291 5.96777 12.0996C5.64876 11.9036 5.24089 11.7464 4.74414 11.6279C4.25195 11.5094 3.64128 11.4023 2.91211 11.3066C2.79362 11.293 2.7002 11.2497 2.63184 11.1768C2.56348 11.0993 2.5293 11.0059 2.5293 10.8965C2.5293 10.7917 2.56348 10.7028 2.63184 10.6299C2.70475 10.5524 2.79818 10.5068 2.91211 10.4932C3.64128 10.4111 4.25423 10.3154 4.75098 10.2061C5.24772 10.0921 5.65788 9.93717 5.98145 9.74121C6.30501 9.54069 6.56478 9.27637 6.76074 8.94824C6.96126 8.62012 7.12077 8.20312 7.23926 7.69727C7.3623 7.19141 7.47396 6.56706 7.57422 5.82422C7.58789 5.71484 7.63118 5.62598 7.7041 5.55762C7.78158 5.48926 7.87044 5.45508 7.9707 5.45508C8.08008 5.45508 8.16895 5.48926 8.2373 5.55762C8.31022 5.62598 8.35807 5.71484 8.38086 5.82422C8.48112 6.56706 8.59049 7.19141 8.70898 7.69727C8.83203 8.20312 8.99154 8.62012 9.1875 8.94824C9.38802 9.27181 9.64779 9.53385 9.9668 9.73438C10.2904 9.93034 10.7005 10.0853 11.1973 10.1992C11.694 10.3132 12.307 10.4111 13.0361 10.4932C13.1501 10.5068 13.2412 10.5524 13.3096 10.6299C13.3825 10.7074 13.4189 10.7962 13.4189 10.8965C13.4189 11.0059 13.3825 11.0993 13.3096 11.1768C13.2412 11.2542 13.1501 11.2975 13.0361 11.3066C12.307 11.3887 11.6917 11.4867 11.1904 11.6006C10.6937 11.71 10.2835 11.8626 9.95996 12.0586C9.63639 12.2546 9.37663 12.5166 9.18066 12.8447C8.9847 13.1729 8.8252 13.5921 8.70215 14.1025C8.58366 14.613 8.47656 15.2373 8.38086 15.9756C8.36263 16.085 8.31706 16.1738 8.24414 16.2422C8.17122 16.3105 8.08008 16.3447 7.9707 16.3447ZM3.24707 8.77051C3.09212 8.77051 3.00326 8.6862 2.98047 8.51758C2.92578 8.06641 2.86882 7.71322 2.80957 7.45801C2.75033 7.19824 2.65462 7.00456 2.52246 6.87695C2.3903 6.74479 2.18978 6.64453 1.9209 6.57617C1.65658 6.50781 1.29427 6.4349 0.833984 6.35742C0.660807 6.33464 0.574219 6.24805 0.574219 6.09766C0.574219 5.95638 0.649414 5.87207 0.799805 5.84473C1.26921 5.75814 1.63835 5.68066 1.90723 5.6123C2.17611 5.53939 2.37663 5.43913 2.50879 5.31152C2.64551 5.18392 2.74349 4.99479 2.80273 4.74414C2.86654 4.49349 2.92578 4.14258 2.98047 3.69141C3.00326 3.52279 3.09212 3.43848 3.24707 3.43848C3.39746 3.43848 3.48405 3.51823 3.50684 3.67773C3.56152 4.13802 3.61849 4.50033 3.67773 4.76465C3.74154 5.02897 3.83952 5.22721 3.97168 5.35938C4.10384 5.49154 4.30436 5.58952 4.57324 5.65332C4.84212 5.71257 5.21126 5.77637 5.68066 5.84473C5.74902 5.84928 5.80371 5.87663 5.84473 5.92676C5.8903 5.97233 5.91309 6.0293 5.91309 6.09766C5.91309 6.24349 5.83789 6.33008 5.6875 6.35742C5.21354 6.44857 4.84212 6.5306 4.57324 6.60352C4.30892 6.67188 4.11068 6.77214 3.97852 6.9043C3.84635 7.0319 3.74837 7.22331 3.68457 7.47852C3.62077 7.72917 3.56152 8.08008 3.50684 8.53125C3.49316 8.59961 3.46354 8.65658 3.41797 8.70215C3.3724 8.74772 3.31543 8.77051 3.24707 8.77051ZM6.55566 3.99219C6.45996 3.99219 6.40527 3.94206 6.3916 3.8418C6.34147 3.5638 6.2959 3.34505 6.25488 3.18555C6.21842 3.02604 6.15918 2.90527 6.07715 2.82324C5.99967 2.74121 5.87891 2.67741 5.71484 2.63184C5.55534 2.58171 5.32747 2.53158 5.03125 2.48145C4.93099 2.45866 4.88086 2.39941 4.88086 2.30371C4.88086 2.21712 4.93099 2.16243 5.03125 2.13965C5.32747 2.08496 5.55534 2.03483 5.71484 1.98926C5.87891 1.93913 5.99967 1.87305 6.07715 1.79102C6.15918 1.70898 6.21842 1.59049 6.25488 1.43555C6.2959 1.27604 6.34147 1.05729 6.3916 0.779297C6.40527 0.679036 6.45996 0.628906 6.55566 0.628906C6.65137 0.628906 6.70833 0.679036 6.72656 0.779297C6.77214 1.05729 6.81543 1.27604 6.85645 1.43555C6.89746 1.59505 6.95671 1.71582 7.03418 1.79785C7.11621 1.87988 7.23698 1.94596 7.39648 1.99609C7.56055 2.04167 7.79069 2.08952 8.08691 2.13965C8.18717 2.15788 8.2373 2.21257 8.2373 2.30371C8.2373 2.39941 8.18717 2.45866 8.08691 2.48145C7.79069 2.53158 7.56055 2.58171 7.39648 2.63184C7.23698 2.67741 7.11621 2.74349 7.03418 2.83008C6.95671 2.91211 6.89746 3.03288 6.85645 3.19238C6.81543 3.34733 6.77214 3.5638 6.72656 3.8418C6.70833 3.94206 6.65137 3.99219 6.55566 3.99219Z" fill="white"/>
</svg>