<svg xmlns="http://www.w3.org/2000/svg" width="10" height="16" viewBox="0 0 10 16" fill="none">
<path d="M0.015625 8.87783C0.015625 8.72744 0.0771484 8.57249 0.200195 8.41299L6.5918 0.51748C6.71484 0.362533 6.84701 0.269108 6.98828 0.237207C7.12956 0.205306 7.25716 0.218978 7.37109 0.278223C7.48503 0.337467 7.56478 0.435449 7.61035 0.572168C7.65592 0.704329 7.64225 0.861556 7.56934 1.04385L5.49121 6.64932H9.44922C9.60417 6.64932 9.72949 6.69717 9.8252 6.79287C9.92546 6.88402 9.97559 7.00251 9.97559 7.14834C9.97559 7.29873 9.91406 7.4514 9.79102 7.60635L3.39941 15.5087C3.27637 15.6591 3.14421 15.7502 3.00293 15.7821C2.86165 15.8186 2.73405 15.8072 2.62012 15.7479C2.50618 15.6887 2.42643 15.5907 2.38086 15.454C2.33529 15.3218 2.34896 15.1623 2.42188 14.9755L4.5 9.37002H0.541992C0.387044 9.37002 0.25944 9.32445 0.15918 9.2333C0.0634766 9.1376 0.015625 9.01911 0.015625 8.87783Z" fill="white"/>
</svg>