<svg xmlns="http://www.w3.org/2000/svg" width="14" height="14" viewBox="0 0 14 14" fill="none">
  <path d="M2.85742 13.4492C2.11914 13.4492 1.56087 13.2601 1.18262 12.8818C0.804362 12.5081 0.615234 11.959 0.615234 11.2344V2.9082C0.615234 2.17448 0.804362 1.62077 1.18262 1.24707C1.56087 0.873372 2.11914 0.686523 2.85742 0.686523H11.1357C11.874 0.686523 12.4323 0.875651 12.8105 1.25391C13.1888 1.6276 13.3779 2.17904 13.3779 2.9082V11.2344C13.3779 11.959 13.1888 12.5081 12.8105 12.8818C12.4323 13.2601 11.874 13.4492 11.1357 13.4492H2.85742ZM3.81445 2.6416C3.54102 2.6416 3.31087 2.73958 3.12402 2.93555C2.94173 3.12695 2.85059 3.37305 2.85059 3.67383C2.85059 3.90625 2.90527 4.12728 3.01465 4.33691C3.12402 4.54655 3.26302 4.74251 3.43164 4.9248C3.60026 5.1071 3.77572 5.27116 3.95801 5.41699C4.1403 5.55827 4.30436 5.67904 4.4502 5.7793C4.4821 5.80208 4.514 5.82259 4.5459 5.84082C4.58236 5.85449 4.61198 5.86133 4.63477 5.86133C4.66211 5.86133 4.68945 5.85221 4.7168 5.83398C4.7487 5.81576 4.7806 5.79753 4.8125 5.7793C4.96289 5.68815 5.12923 5.57194 5.31152 5.43066C5.49382 5.28483 5.66699 5.12077 5.83105 4.93848C5.99967 4.75618 6.13639 4.55794 6.24121 4.34375C6.35059 4.12956 6.40527 3.90625 6.40527 3.67383C6.40527 3.37305 6.31185 3.12695 6.125 2.93555C5.94271 2.73958 5.71029 2.6416 5.42773 2.6416C5.25 2.6416 5.09277 2.69173 4.95605 2.79199C4.81934 2.8877 4.70996 3.00846 4.62793 3.1543C4.55046 3.00846 4.44108 2.8877 4.2998 2.79199C4.16309 2.69173 4.0013 2.6416 3.81445 2.6416ZM3.30176 8.91016H10.0693C10.1924 8.91016 10.2949 8.86686 10.377 8.78027C10.4635 8.69368 10.5068 8.58659 10.5068 8.45898C10.5068 8.33594 10.4635 8.2334 10.377 8.15137C10.2949 8.06934 10.1924 8.02832 10.0693 8.02832H3.30176C3.17415 8.02832 3.06706 8.06934 2.98047 8.15137C2.89388 8.2334 2.85059 8.33594 2.85059 8.45898C2.85059 8.58659 2.89388 8.69368 2.98047 8.78027C3.06706 8.86686 3.17415 8.91016 3.30176 8.91016ZM3.30176 11.2549H8.33984C8.46745 11.2549 8.57227 11.2139 8.6543 11.1318C8.73633 11.0452 8.77734 10.9404 8.77734 10.8174C8.77734 10.6898 8.73633 10.5827 8.6543 10.4961C8.57227 10.4095 8.46745 10.3662 8.33984 10.3662H3.30176C3.17415 10.3662 3.06706 10.4095 2.98047 10.4961C2.89388 10.5827 2.85059 10.6898 2.85059 10.8174C2.85059 10.9404 2.89388 11.0452 2.98047 11.1318C3.06706 11.2139 3.17415 11.2549 3.30176 11.2549Z" fill="white"/>
</svg>