<svg xmlns="http://www.w3.org/2000/svg" width="14" height="18" viewBox="0 0 14 18" fill="none">
  <path d="M8.06641 17.2881C6.79492 17.2881 5.79232 17.0648 5.05859 16.6182C4.32943 16.1761 3.96484 15.5563 3.96484 14.7588V14.0273L4.82617 14.834L3.45215 14.9775C2.82324 15.0459 2.30143 14.9183 1.88672 14.5947C1.47201 14.2712 1.26465 13.7767 1.26465 13.1113V11.9355C0.881836 11.8444 0.585612 11.6667 0.375977 11.4023C0.170898 11.138 0.0683594 10.8304 0.0683594 10.4795C0.0683594 10.0921 0.18457 9.69792 0.416992 9.29688L1.28516 7.73145C1.2806 7.64486 1.27604 7.55827 1.27148 7.47168C1.26693 7.38053 1.26465 7.28255 1.26465 7.17773C1.26465 6.2207 1.41504 5.35254 1.71582 4.57324C2.0166 3.79395 2.44499 3.12402 3.00098 2.56348C3.55697 1.99837 4.22233 1.56543 4.99707 1.26465C5.77637 0.95931 6.6377 0.806641 7.58105 0.806641C8.52897 0.806641 9.39258 0.961589 10.1719 1.27148C10.9512 1.58138 11.6188 2.02344 12.1748 2.59766C12.7354 3.17188 13.166 3.86003 13.4668 4.66211C13.7721 5.45964 13.9248 6.34603 13.9248 7.32129C13.9248 8.15072 13.7744 8.92773 13.4736 9.65234C13.1774 10.377 12.7627 10.9762 12.2295 11.4502V14.7588C12.2295 15.5563 11.8581 16.1761 11.1152 16.6182C10.3724 17.0648 9.35612 17.2881 8.06641 17.2881ZM8.06641 16.0029C8.66797 16.0029 9.18066 15.9437 9.60449 15.8252C10.0329 15.7113 10.3633 15.5449 10.5957 15.3262C10.8281 15.112 10.9443 14.8568 10.9443 14.5605L10.9375 10.8145C11.4707 10.4954 11.8877 10.0238 12.1885 9.39941C12.4893 8.77507 12.6396 8.08236 12.6396 7.32129C12.6396 6.27311 12.4277 5.3571 12.0039 4.57324C11.5846 3.78939 10.9945 3.18099 10.2334 2.74805C9.47689 2.31055 8.59277 2.0918 7.58105 2.0918C6.57389 2.0918 5.69206 2.30371 4.93555 2.72754C4.17904 3.14681 3.59115 3.73698 3.17188 4.49805C2.7526 5.25911 2.54297 6.14551 2.54297 7.15723C2.54297 7.2985 2.5498 7.4375 2.56348 7.57422C2.57715 7.71094 2.5931 7.84766 2.61133 7.98438L1.57227 9.85059C1.46745 10.0465 1.41504 10.2266 1.41504 10.3906C1.41504 10.5456 1.46973 10.6686 1.5791 10.7598C1.68848 10.8509 1.84115 10.8965 2.03711 10.8965H2.36523C2.42448 10.8965 2.47005 10.9124 2.50195 10.9443C2.53385 10.9717 2.5498 11.0104 2.5498 11.0605V13.0156C2.5498 13.2754 2.61361 13.46 2.74121 13.5693C2.87337 13.6787 3.05794 13.7197 3.29492 13.6924L4.96973 13.5078C5.03353 13.4987 5.08594 13.5124 5.12695 13.5488C5.16797 13.5853 5.18848 13.64 5.18848 13.7129V14.5605C5.18848 15.0026 5.44368 15.3535 5.9541 15.6133C6.46452 15.873 7.16862 16.0029 8.06641 16.0029ZM3.5 6.17285C3.5 5.80827 3.59115 5.46875 3.77344 5.1543C3.96029 4.83529 4.20866 4.58691 4.51855 4.40918L4.86035 5.01074C4.65072 5.12923 4.48438 5.29102 4.36133 5.49609C4.23828 5.70117 4.17676 5.92448 4.17676 6.16602C4.17676 6.5625 4.30208 6.87923 4.55273 7.11621C4.80339 7.34863 5.13607 7.46484 5.55078 7.46484C5.94727 7.46484 6.26628 7.36458 6.50781 7.16406C6.75391 6.96354 6.87695 6.69466 6.87695 6.35742C6.87695 6.14779 6.81543 5.986 6.69238 5.87207C6.61491 5.79915 6.55339 5.73991 6.50781 5.69434C6.46224 5.64421 6.43945 5.57129 6.43945 5.47559C6.43945 5.38444 6.47135 5.31152 6.53516 5.25684C6.59896 5.19759 6.67871 5.16797 6.77441 5.16797C6.87923 5.16797 6.99316 5.2181 7.11621 5.31836C7.25749 5.43229 7.36458 5.5804 7.4375 5.7627C7.51042 5.94499 7.54688 6.14779 7.54688 6.37109C7.54688 6.9043 7.36003 7.33496 6.98633 7.66309C6.61719 7.98665 6.13411 8.14844 5.53711 8.14844C4.92643 8.14844 4.43424 7.96615 4.06055 7.60156C3.68685 7.23698 3.5 6.76074 3.5 6.17285ZM4.33398 4.53223C4.33398 4.14486 4.4707 3.82357 4.74414 3.56836C5.02214 3.31315 5.36621 3.18555 5.77637 3.18555C5.98145 3.18555 6.17741 3.21973 6.36426 3.28809C6.55111 3.35189 6.72428 3.44531 6.88379 3.56836L6.49414 4.12891C6.27539 3.95573 6.03613 3.86914 5.77637 3.86914C5.55762 3.86914 5.37533 3.93066 5.22949 4.05371C5.08822 4.17676 5.01758 4.33626 5.01758 4.53223C5.01758 4.71452 5.07682 4.86035 5.19531 4.96973C5.3138 5.0791 5.47103 5.13379 5.66699 5.13379C5.7627 5.13379 5.84245 5.16797 5.90625 5.23633C5.97461 5.30013 6.00879 5.3776 6.00879 5.46875C6.00879 5.56445 5.97461 5.64648 5.90625 5.71484C5.84245 5.77865 5.7627 5.81055 5.66699 5.81055C5.27051 5.81055 4.94922 5.69434 4.70312 5.46191C4.45703 5.22493 4.33398 4.91504 4.33398 4.53223ZM6.00879 4.43652C6.02246 3.96257 6.18197 3.57975 6.4873 3.28809C6.7972 2.99186 7.18457 2.84375 7.64941 2.84375C7.86816 2.84375 8.07324 2.88704 8.26465 2.97363C8.46061 3.06022 8.62695 3.17871 8.76367 3.3291C8.80469 3.31999 8.84115 3.31543 8.87305 3.31543C8.90495 3.31087 8.93913 3.30859 8.97559 3.30859C9.4222 3.30859 9.80046 3.47038 10.1104 3.79395C10.4248 4.11751 10.582 4.51855 10.582 4.99707C10.582 5.37533 10.5137 5.68066 10.377 5.91309C10.2402 6.14095 10.0693 6.32552 9.86426 6.4668C9.65918 6.60352 9.4541 6.72656 9.24902 6.83594C9.0485 6.94076 8.8776 7.05697 8.73633 7.18457C8.59961 7.31217 8.53125 7.48307 8.53125 7.69727C8.53125 7.88867 8.611 8.03451 8.77051 8.13477C8.93001 8.23503 9.16243 8.28516 9.46777 8.28516C9.5179 8.28516 9.56576 8.28516 9.61133 8.28516C9.6569 8.2806 9.70247 8.27832 9.74805 8.27832C9.84831 8.27832 9.89844 8.32617 9.89844 8.42188C9.89844 8.66341 9.93945 8.86393 10.0215 9.02344C10.1081 9.17839 10.2174 9.25586 10.3496 9.25586C10.5046 9.25586 10.639 9.13509 10.7529 8.89355C10.8669 8.65202 10.9238 8.3444 10.9238 7.9707C10.9238 7.80664 10.9147 7.66081 10.8965 7.5332C10.8828 7.40104 10.8691 7.2666 10.8555 7.12988L11.5459 6.93164C11.5596 7.07292 11.571 7.22559 11.5801 7.38965C11.5938 7.55371 11.6006 7.74967 11.6006 7.97754C11.6006 8.55176 11.4844 9.02344 11.252 9.39258C11.0195 9.75716 10.7188 9.93945 10.3496 9.93945C10.099 9.93945 9.88021 9.84375 9.69336 9.65234C9.50651 9.46094 9.38802 9.21029 9.33789 8.90039C9.30599 8.90039 9.27637 8.90039 9.24902 8.90039C9.22624 8.90039 9.20345 8.90039 9.18066 8.90039C8.78874 8.90039 8.46745 8.78874 8.2168 8.56543C7.96615 8.34212 7.84082 8.05729 7.84082 7.71094C7.84082 7.4056 7.90918 7.15951 8.0459 6.97266C8.18717 6.78581 8.35807 6.62858 8.55859 6.50098C8.76367 6.37337 8.96875 6.24805 9.17383 6.125C9.37891 5.9974 9.5498 5.84928 9.68652 5.68066C9.82324 5.50749 9.8916 5.27962 9.8916 4.99707C9.8916 4.71452 9.7959 4.47754 9.60449 4.28613C9.41764 4.09473 9.18522 3.99902 8.90723 3.99902C8.86165 3.99902 8.81836 4.0013 8.77734 4.00586C8.74089 4.00586 8.70443 4.01042 8.66797 4.01953C8.51302 4.06055 8.41504 4.04004 8.37402 3.95801C8.31478 3.82585 8.21908 3.72103 8.08691 3.64355C7.95475 3.56152 7.80892 3.52051 7.64941 3.52051C7.37142 3.52051 7.14355 3.60938 6.96582 3.78711C6.78809 3.96029 6.69238 4.18359 6.67871 4.45703C6.67415 4.55729 6.63997 4.63932 6.57617 4.70312C6.51693 4.76693 6.43717 4.79883 6.33691 4.79883C6.23665 4.79883 6.15462 4.76465 6.09082 4.69629C6.03158 4.62793 6.00423 4.54134 6.00879 4.43652ZM9.68652 7.49902C9.68652 7.40788 9.7207 7.32812 9.78906 7.25977C9.85742 7.19141 9.93945 7.15951 10.0352 7.16406C10.3952 7.19141 10.6823 7.11621 10.8965 6.93848C11.1107 6.76074 11.2178 6.51009 11.2178 6.18652C11.2178 5.86751 11.1198 5.61914 10.9238 5.44141C10.7279 5.26367 10.4704 5.18392 10.1514 5.20215L10.2539 4.50488C10.7415 4.5459 11.138 4.72363 11.4434 5.03809C11.7487 5.35254 11.9014 5.73535 11.9014 6.18652C11.9014 6.71973 11.7259 7.139 11.375 7.44434C11.0286 7.74967 10.5775 7.88411 10.0215 7.84766C9.92122 7.83854 9.83919 7.80208 9.77539 7.73828C9.71615 7.66992 9.68652 7.59017 9.68652 7.49902ZM8.19629 7.81348L8.42188 8.46289C8.27604 8.51302 8.12109 8.55176 7.95703 8.5791C7.79753 8.60189 7.6403 8.61328 7.48535 8.61328C7.13444 8.61328 6.80859 8.54948 6.50781 8.42188C6.21159 8.28971 5.97461 8.11426 5.79688 7.89551L6.39844 7.42383C6.47135 7.57422 6.61491 7.69727 6.8291 7.79297C7.04785 7.88867 7.28711 7.93652 7.54688 7.93652C7.65625 7.93652 7.7679 7.92513 7.88184 7.90234C7.99577 7.87956 8.10059 7.84993 8.19629 7.81348ZM7.02734 5.66699C7.31901 5.63965 7.53092 5.56217 7.66309 5.43457C7.79525 5.30697 7.85905 5.111 7.85449 4.84668C7.85449 4.75553 7.88639 4.67806 7.9502 4.61426C8.01855 4.5459 8.09831 4.51172 8.18945 4.51172C8.2806 4.51172 8.36035 4.5459 8.42871 4.61426C8.50163 4.68262 8.53809 4.76009 8.53809 4.84668C8.54264 5.26595 8.43327 5.60091 8.20996 5.85156C7.99121 6.10221 7.66992 6.25944 7.24609 6.32324L7.02734 5.66699Z" fill="white"/>
</svg>