<svg xmlns="http://www.w3.org/2000/svg" width="16" height="15" viewBox="0 0 16 15" fill="none">
  <path d="M4.74609 12.9023L4.21973 11.9795L7.0293 10.3594L6.70801 10.1885C6.39811 10.0426 6.08822 9.8877 5.77832 9.72363C5.46842 9.55957 5.16309 9.38867 4.8623 9.21094L1.28711 7.14648L1.81348 6.23047L4.67773 7.88477C4.64583 7.74805 4.62077 7.60905 4.60254 7.46777C4.58887 7.32194 4.58203 7.17611 4.58203 7.03027V1.30176H5.63477V4.57617C5.96745 4.34831 6.30924 4.12272 6.66016 3.89941C7.01562 3.67611 7.37109 3.46191 7.72656 3.25684L11.2471 1.22656L11.7803 2.14941L8.96387 3.76953L9.09375 3.82422C9.43555 3.98828 9.77507 4.16146 10.1123 4.34375C10.4495 4.52604 10.7845 4.71289 11.1172 4.9043L14.6992 6.96875L14.1797 7.8916L11.3154 6.24414C11.3473 6.3763 11.3701 6.5153 11.3838 6.66113C11.402 6.80241 11.4111 6.94596 11.4111 7.0918V12.8203H10.3652V9.53906C10.0234 9.77148 9.67708 9.99935 9.32617 10.2227C8.97526 10.446 8.61751 10.6624 8.25293 10.8721L4.74609 12.9023ZM7.99316 9.42285C8.43066 9.42285 8.82715 9.31803 9.18262 9.1084C9.53809 8.89421 9.82064 8.60938 10.0303 8.25391C10.2445 7.89388 10.3516 7.4974 10.3516 7.06445C10.3516 6.63151 10.2445 6.2373 10.0303 5.88184C9.82064 5.52181 9.53809 5.23698 9.18262 5.02734C8.82715 4.81315 8.43066 4.70605 7.99316 4.70605C7.56022 4.70605 7.16602 4.81315 6.81055 5.02734C6.45508 5.23698 6.17025 5.52181 5.95605 5.88184C5.74186 6.2373 5.63477 6.63151 5.63477 7.06445C5.63477 7.4974 5.74186 7.89388 5.95605 8.25391C6.17025 8.60938 6.45508 8.89421 6.81055 9.1084C7.16602 9.31803 7.56022 9.42285 7.99316 9.42285ZM7.99316 14.126C7.0179 14.126 6.10417 13.9414 5.25195 13.5723C4.39974 13.2077 3.65007 12.7018 3.00293 12.0547C2.35579 11.4121 1.84766 10.6647 1.47852 9.8125C1.11393 8.95573 0.931641 8.03971 0.931641 7.06445C0.931641 6.08919 1.11393 5.17546 1.47852 4.32324C1.84766 3.46647 2.35579 2.71452 3.00293 2.06738C3.65007 1.42025 4.39974 0.914388 5.25195 0.549805C6.10417 0.185221 7.0179 0.00292969 7.99316 0.00292969C8.96842 0.00292969 9.88216 0.185221 10.7344 0.549805C11.5911 0.914388 12.3431 1.42025 12.9902 2.06738C13.6374 2.71452 14.1432 3.46647 14.5078 4.32324C14.877 5.17546 15.0615 6.08919 15.0615 7.06445C15.0615 8.03971 14.877 8.95573 14.5078 9.8125C14.1432 10.6647 13.6374 11.4121 12.9902 12.0547C12.3431 12.7018 11.5911 13.2077 10.7344 13.5723C9.88216 13.9414 8.96842 14.126 7.99316 14.126ZM7.99316 12.7314C8.77702 12.7314 9.51074 12.5833 10.1943 12.2871C10.8779 11.9954 11.4795 11.5898 11.999 11.0703C12.5231 10.5508 12.931 9.94922 13.2227 9.26562C13.5143 8.58203 13.6602 7.84831 13.6602 7.06445C13.6602 6.2806 13.5143 5.54688 13.2227 4.86328C12.931 4.17513 12.5231 3.57357 11.999 3.05859C11.4795 2.53906 10.8779 2.13346 10.1943 1.8418C9.51074 1.54557 8.77702 1.39746 7.99316 1.39746C7.21387 1.39746 6.48014 1.54557 5.79199 1.8418C5.1084 2.13346 4.50684 2.53906 3.9873 3.05859C3.46777 3.57357 3.0599 4.17513 2.76367 4.86328C2.47201 5.54688 2.32617 6.2806 2.32617 7.06445C2.32617 7.84831 2.47201 8.58203 2.76367 9.26562C3.0599 9.94922 3.46777 10.5508 3.9873 11.0703C4.50684 11.5898 5.1084 11.9954 5.79199 12.2871C6.48014 12.5833 7.21387 12.7314 7.99316 12.7314Z" fill="white"/>
</svg>