<svg width="20" height="19" viewBox="0 0 20 19" fill="none" xmlns="http://www.w3.org/2000/svg">
<path d="M10 18.8213C8.73438 18.8213 7.54785 18.5811 6.44043 18.1006C5.33301 17.626 4.35742 16.9668 3.51367 16.123C2.67578 15.2852 2.01953 14.3154 1.54492 13.2139C1.07031 12.1064 0.833008 10.9199 0.833008 9.6543C0.833008 8.38867 1.07031 7.20215 1.54492 6.09473C2.01953 4.9873 2.67578 4.01465 3.51367 3.17676C4.35742 2.33301 5.33301 1.67383 6.44043 1.19922C7.54785 0.724609 8.73438 0.487305 10 0.487305C11.2656 0.487305 12.4521 0.724609 13.5596 1.19922C14.667 1.67383 15.6396 2.33301 16.4775 3.17676C17.3154 4.01465 17.9717 4.9873 18.4463 6.09473C18.9268 7.20215 19.167 8.38867 19.167 9.6543C19.167 10.9199 18.9268 12.1064 18.4463 13.2139C17.9717 14.3154 17.3154 15.2852 16.4775 16.123C15.6396 16.9668 14.667 17.626 13.5596 18.1006C12.4521 18.5811 11.2656 18.8213 10 18.8213ZM9.02441 14.0137C9.2002 14.0137 9.36133 13.9727 9.50781 13.8906C9.66016 13.8027 9.78906 13.6826 9.89453 13.5303L13.999 7.18457C14.0635 7.08496 14.1162 6.97949 14.1572 6.86816C14.2041 6.75684 14.2275 6.64551 14.2275 6.53418C14.2275 6.28809 14.1338 6.08887 13.9463 5.93652C13.7646 5.78418 13.5566 5.70801 13.3223 5.70801C13.0117 5.70801 12.751 5.875 12.54 6.20898L8.99805 11.8691L7.37207 9.83008C7.25488 9.68359 7.1377 9.58105 7.02051 9.52246C6.90332 9.45801 6.77148 9.42578 6.625 9.42578C6.37891 9.42578 6.1709 9.51367 6.00098 9.68945C5.83105 9.85938 5.74609 10.0674 5.74609 10.3135C5.74609 10.4307 5.7666 10.5449 5.80762 10.6562C5.85449 10.7617 5.91895 10.8701 6.00098 10.9814L8.11914 13.5303C8.24805 13.6943 8.38574 13.8174 8.53223 13.8994C8.67871 13.9756 8.84277 14.0137 9.02441 14.0137Z" fill="#309967"/>
</svg>
