<svg width="16" height="14" viewBox="0 0 16 14" fill="none" xmlns="http://www.w3.org/2000/svg">
<path d="M0.0566406 6.99023C0.0566406 6.69141 0.167318 6.43685 0.388672 6.22656L5.81738 0.797852C5.93359 0.681641 6.05257 0.598633 6.17432 0.548828C6.3016 0.49349 6.42887 0.46582 6.55615 0.46582C6.86051 0.46582 7.10677 0.559896 7.29492 0.748047C7.48307 0.936198 7.57715 1.16862 7.57715 1.44531C7.57715 1.59473 7.54671 1.73307 7.48584 1.86035C7.4305 1.9821 7.35579 2.09001 7.26172 2.18408L5.40234 4.06006L2.45557 6.76611L2.07373 6.12695L5.09521 5.96094H14.8901C15.2056 5.96094 15.4601 6.05778 15.6538 6.25146C15.8475 6.43962 15.9443 6.68587 15.9443 6.99023C15.9443 7.30013 15.8475 7.55192 15.6538 7.74561C15.4601 7.93376 15.2056 8.02783 14.8901 8.02783H5.09521L2.07373 7.85352L2.45557 7.23096L5.40234 9.92041L7.26172 11.7964C7.35579 11.8905 7.4305 11.9984 7.48584 12.1201C7.54671 12.2419 7.57715 12.3802 7.57715 12.5352C7.57715 12.8118 7.48307 13.0443 7.29492 13.2324C7.10677 13.4206 6.86051 13.5146 6.55615 13.5146C6.29053 13.5146 6.0498 13.4067 5.83398 13.1909L0.388672 7.75391C0.167318 7.54362 0.0566406 7.28906 0.0566406 6.99023Z" fill="#231132" fill-opacity="0.5"/>
</svg>
