<svg width="21" height="21" viewBox="0 0 21 21" fill="none" xmlns="http://www.w3.org/2000/svg">
<g clip-path="url(#clip0_366_1801)">
<path d="M10.0875 20.1848C15.6576 20.1848 20.1767 15.6656 20.1767 10.0973C20.1767 4.53691 15.6576 0.00976562 10.0875 0.00976562C4.52715 0.00976562 0 4.53691 0 10.0973C0 15.6656 4.52715 20.1848 10.0875 20.1848Z" fill="#FF3B30"/>
<path d="M6.45703 14.0597V10.1022C6.45703 9.40166 6.73945 9.05283 7.3043 8.99619V7.85225C7.3043 5.98272 8.42988 4.73193 10.0881 4.73193C11.7498 4.73193 12.8754 5.98272 12.8754 7.85225V8.99795C13.4367 9.05283 13.7209 9.40166 13.7209 10.1022V14.0597C13.7209 14.8327 13.3783 15.1833 12.6674 15.1833H7.5123C6.79961 15.1833 6.45703 14.8327 6.45703 14.0597ZM8.49785 8.97588H11.6801V7.74561C11.6801 6.63174 11.0404 5.88818 10.0863 5.88818C9.13398 5.88818 8.49785 6.63349 8.49785 7.74561V8.97588Z" fill="white"/>
</g>
<defs>
<clipPath id="clip0_366_1801">
<rect width="20.5381" height="20.1848" fill="white"/>
</clipPath>
</defs>
</svg>
