<svg width="11" height="18" viewBox="0 0 11 18" fill="none" xmlns="http://www.w3.org/2000/svg">
<path d="M0.564453 8.94922C0.570964 8.7474 0.610026 8.56185 0.681641 8.39258C0.759766 8.22331 0.876953 8.06055 1.0332 7.9043L8.55273 0.550781C8.80013 0.303385 9.10286 0.179688 9.46094 0.179688C9.70833 0.179688 9.92969 0.238281 10.125 0.355469C10.3268 0.472656 10.4863 0.632161 10.6035 0.833984C10.7272 1.0293 10.7891 1.2474 10.7891 1.48828C10.7891 1.85286 10.6523 2.17188 10.3789 2.44531L3.68945 8.94922L10.3789 15.4531C10.6523 15.7331 10.7891 16.0521 10.7891 16.4102C10.7891 16.6576 10.7272 16.8789 10.6035 17.0742C10.4863 17.2695 10.3268 17.4258 10.125 17.543C9.92969 17.6602 9.70833 17.7188 9.46094 17.7188C9.10286 17.7188 8.80013 17.5951 8.55273 17.3477L1.0332 9.99414C0.870443 9.83789 0.75 9.67513 0.671875 9.50586C0.60026 9.33008 0.564453 9.14453 0.564453 8.94922Z" fill="#231132"/>
</svg>
