<svg width="46" height="57" viewBox="0 0 46 57" fill="none" xmlns="http://www.w3.org/2000/svg">
<path d="M26.5371 56.374C26.179 56.374 25.8617 56.252 25.585 56.0078C25.3245 55.7637 25.1699 55.4463 25.1211 55.0557C24.7305 52.4189 24.3154 50.1973 23.876 48.3906C23.4365 46.6003 22.8669 45.1273 22.167 43.9717C21.4671 42.8161 20.5394 41.8965 19.3838 41.2129C18.2445 40.513 16.7878 39.9515 15.0137 39.5283C13.2559 39.1051 11.0749 38.7227 8.4707 38.3809C8.04753 38.332 7.71387 38.1774 7.46973 37.917C7.22559 37.6403 7.10352 37.3066 7.10352 36.916C7.10352 36.5417 7.22559 36.2243 7.46973 35.9639C7.73014 35.6872 8.0638 35.5244 8.4707 35.4756C11.0749 35.1826 13.264 34.8408 15.0381 34.4502C16.8122 34.0433 18.277 33.4899 19.4326 32.79C20.5882 32.0739 21.516 31.1299 22.2158 29.958C22.932 28.7861 23.5016 27.2969 23.9248 25.4902C24.3643 23.6836 24.763 21.4538 25.1211 18.8008C25.1699 18.4102 25.3245 18.0928 25.585 17.8486C25.8617 17.6045 26.179 17.4824 26.5371 17.4824C26.9277 17.4824 27.2451 17.6045 27.4893 17.8486C27.7497 18.0928 27.9206 18.4102 28.002 18.8008C28.36 21.4538 28.7507 23.6836 29.1738 25.4902C29.6133 27.2969 30.1829 28.7861 30.8828 29.958C31.599 31.1136 32.5267 32.0495 33.666 32.7656C34.8216 33.4655 36.2865 34.0189 38.0605 34.4258C39.8346 34.8327 42.0238 35.1826 44.6279 35.4756C45.0348 35.5244 45.3604 35.6872 45.6045 35.9639C45.8649 36.2406 45.9951 36.5579 45.9951 36.916C45.9951 37.3066 45.8649 37.6403 45.6045 37.917C45.3604 38.1937 45.0348 38.3483 44.6279 38.3809C42.0238 38.6738 39.8265 39.0238 38.0361 39.4307C36.262 39.8213 34.7972 40.3665 33.6416 41.0664C32.486 41.7663 31.5583 42.7021 30.8584 43.874C30.1585 45.0459 29.5889 46.5433 29.1494 48.3662C28.7262 50.1891 28.3438 52.4189 28.002 55.0557C27.9368 55.4463 27.7741 55.7637 27.5137 56.0078C27.2533 56.252 26.9277 56.374 26.5371 56.374ZM9.66699 29.3232C9.11361 29.3232 8.79622 29.0221 8.71484 28.4199C8.51953 26.8086 8.31608 25.5472 8.10449 24.6357C7.8929 23.708 7.55111 23.0163 7.0791 22.5605C6.6071 22.0885 5.89095 21.7305 4.93066 21.4863C3.98665 21.2422 2.69271 20.9818 1.04883 20.7051C0.430339 20.6237 0.121094 20.3145 0.121094 19.7773C0.121094 19.2728 0.389648 18.9717 0.926758 18.874C2.60319 18.5648 3.92155 18.2881 4.88184 18.0439C5.84212 17.7835 6.55827 17.4255 7.03027 16.9697C7.51855 16.514 7.86849 15.8385 8.08008 14.9434C8.30794 14.0482 8.51953 12.7949 8.71484 11.1836C8.79622 10.5814 9.11361 10.2803 9.66699 10.2803C10.2041 10.2803 10.5133 10.5651 10.5947 11.1348C10.79 12.7786 10.9935 14.0726 11.2051 15.0166C11.4329 15.9606 11.7829 16.6686 12.2549 17.1406C12.7269 17.6126 13.443 17.9626 14.4033 18.1904C15.3636 18.402 16.682 18.6299 18.3584 18.874C18.6025 18.8903 18.7979 18.988 18.9443 19.167C19.1071 19.3298 19.1885 19.5332 19.1885 19.7773C19.1885 20.2982 18.9199 20.6074 18.3828 20.7051C16.6901 21.0306 15.3636 21.3236 14.4033 21.584C13.4593 21.8281 12.7513 22.1862 12.2793 22.6582C11.8073 23.1139 11.4574 23.7975 11.2295 24.709C11.0016 25.6042 10.79 26.8574 10.5947 28.4688C10.5459 28.7129 10.4401 28.9163 10.2773 29.0791C10.1146 29.2419 9.91113 29.3232 9.66699 29.3232ZM21.4834 12.2578C21.1416 12.2578 20.9463 12.0788 20.8975 11.7207C20.7184 10.7279 20.5557 9.94661 20.4092 9.37695C20.279 8.80729 20.0674 8.37598 19.7744 8.08301C19.4977 7.79004 19.0664 7.56217 18.4805 7.39941C17.9108 7.22038 17.097 7.04134 16.0391 6.8623C15.681 6.78092 15.502 6.56934 15.502 6.22754C15.502 5.91829 15.681 5.72298 16.0391 5.6416C17.097 5.44629 17.9108 5.26725 18.4805 5.10449C19.0664 4.92546 19.4977 4.68945 19.7744 4.39648C20.0674 4.10352 20.279 3.68034 20.4092 3.12695C20.5557 2.55729 20.7184 1.77604 20.8975 0.783203C20.9463 0.42513 21.1416 0.246094 21.4834 0.246094C21.8252 0.246094 22.0286 0.42513 22.0938 0.783203C22.2565 1.77604 22.4111 2.55729 22.5576 3.12695C22.7041 3.69661 22.9157 4.12793 23.1924 4.4209C23.4854 4.71387 23.9167 4.94987 24.4863 5.12891C25.0723 5.29167 25.8942 5.46257 26.9521 5.6416C27.3102 5.70671 27.4893 5.90202 27.4893 6.22754C27.4893 6.56934 27.3102 6.78092 26.9521 6.8623C25.8942 7.04134 25.0723 7.22038 24.4863 7.39941C23.9167 7.56217 23.4854 7.79818 23.1924 8.10742C22.9157 8.40039 22.7041 8.83171 22.5576 9.40137C22.4111 9.95475 22.2565 10.7279 22.0938 11.7207C22.0286 12.0788 21.8252 12.2578 21.4834 12.2578Z" fill="url(#paint0_linear_191_349)"/>
<defs>
<linearGradient id="paint0_linear_191_349" x1="-5" y1="30.5" x2="51" y2="30.5" gradientUnits="userSpaceOnUse">
<stop stop-color="#FF6A00"/>
<stop offset="1" stop-color="#FE5C71"/>
</linearGradient>
</defs>
</svg>
