<svg width="30" height="23" viewBox="0 0 30 23" fill="none" xmlns="http://www.w3.org/2000/svg">
<path d="M7.89062 0.394531C9.21875 0.394531 10.4375 0.644531 11.5469 1.14453C12.6562 1.64453 13.4961 2.32031 14.0664 3.17188C14.1836 3.35156 14.2578 3.49609 14.2891 3.60547C14.3281 3.71484 14.3477 3.85547 14.3477 4.02734V21.9102C14.3477 22.082 14.293 22.2188 14.1836 22.3203C14.0742 22.4219 13.9414 22.4727 13.7852 22.4727C13.5898 22.4727 13.4102 22.4062 13.2461 22.2734C12.8164 21.9141 12.3516 21.6133 11.8516 21.3711C11.3594 21.1367 10.8438 20.957 10.3047 20.832C9.76562 20.7148 9.21094 20.6562 8.64062 20.6562C7.79688 20.6562 6.96484 20.7812 6.14453 21.0312C5.32422 21.2891 4.57031 21.668 3.88281 22.168C3.60156 22.3398 3.35938 22.4648 3.15625 22.543C2.96094 22.6289 2.72656 22.6719 2.45312 22.6719C2 22.6719 1.64062 22.5469 1.375 22.2969C1.11719 22.0547 0.988281 21.6953 0.988281 21.2188V4.90625C0.988281 4.57812 1.00781 4.33203 1.04688 4.16797C1.08594 3.99609 1.16406 3.8125 1.28125 3.61719C1.65625 2.96875 2.19141 2.40234 2.88672 1.91797C3.58203 1.43359 4.36328 1.05859 5.23047 0.792969C6.10547 0.527344 6.99219 0.394531 7.89062 0.394531ZM22.6797 0.394531C23.5781 0.394531 24.4609 0.527344 25.3281 0.792969C26.2031 1.05859 26.9883 1.43359 27.6836 1.91797C28.3789 2.40234 28.9141 2.96875 29.2891 3.61719C29.4062 3.80469 29.4844 3.98438 29.5234 4.15625C29.5625 4.32812 29.582 4.57812 29.582 4.90625V21.2188C29.582 21.6953 29.4492 22.0547 29.1836 22.2969C28.9258 22.5469 28.5664 22.6719 28.1055 22.6719C27.8398 22.6719 27.6055 22.6289 27.4023 22.543C27.207 22.4648 26.9688 22.3398 26.6875 22.168C26 21.668 25.2461 21.2891 24.4258 21.0312C23.6055 20.7812 22.7734 20.6562 21.9297 20.6562C21.3594 20.6562 20.8047 20.7148 20.2656 20.832C19.7266 20.957 19.207 21.1367 18.707 21.3711C18.2148 21.6133 17.7539 21.9141 17.3242 22.2734C17.1602 22.4062 16.9805 22.4727 16.7852 22.4727C16.6289 22.4727 16.4961 22.4219 16.3867 22.3203C16.2773 22.2188 16.2227 22.082 16.2227 21.9102V4.02734C16.2227 3.85547 16.2383 3.71484 16.2695 3.60547C16.3086 3.49609 16.3867 3.35156 16.5039 3.17188C17.0742 2.32031 17.9141 1.64453 19.0234 1.14453C20.1328 0.644531 21.3516 0.394531 22.6797 0.394531Z" fill="white"/>
</svg>
