<svg width="29" height="29" viewBox="0 0 29 29" fill="none" xmlns="http://www.w3.org/2000/svg">
<path d="M29 14.5C29 22.5081 22.5081 29 14.5 29C6.49187 29 0 22.5081 0 14.5C0 6.49187 6.49187 0 14.5 0C22.5081 0 29 6.49187 29 14.5Z" fill="#FF826D"/>
<path d="M13.2241 20.2632C12.7586 20.2632 12.3757 20.0876 12.0752 19.7363L8.80615 15.8833C8.66227 15.7267 8.56283 15.5765 8.50781 15.4326C8.45703 15.2845 8.43164 15.1279 8.43164 14.9629C8.43164 14.599 8.55436 14.2964 8.7998 14.0552C9.04525 13.814 9.35628 13.6934 9.73291 13.6934C10.1349 13.6934 10.4692 13.8478 10.7358 14.1567L13.1987 17.1084L18.1182 9.3833C18.2747 9.14209 18.4398 8.97282 18.6133 8.87549C18.791 8.77393 19.0068 8.72314 19.2607 8.72314C19.6289 8.72314 19.9378 8.84375 20.1875 9.08496C20.4414 9.32194 20.5684 9.6224 20.5684 9.98633C20.5684 10.1175 20.5451 10.255 20.4985 10.3989C20.452 10.5386 20.38 10.6803 20.2827 10.8242L14.4238 19.6538C14.153 20.0601 13.7531 20.2632 13.2241 20.2632Z" fill="white"/>
</svg>
