<svg width="21" height="21" viewBox="0 0 21 21" fill="none" xmlns="http://www.w3.org/2000/svg">
<path d="M10.0875 20.7294C15.6576 20.7294 20.1767 16.2103 20.1767 10.6419C20.1767 5.07358 15.6576 0.554443 10.0875 0.554443C4.51914 0.554443 0 5.07358 0 10.6419C0 16.2103 4.51914 20.7294 10.0875 20.7294ZM10.0875 18.7423C5.60839 18.7423 1.9871 15.121 1.9871 10.6419C1.9871 6.16283 5.60839 2.54154 10.0875 2.54154C14.5666 2.54154 18.1897 6.16283 18.1897 10.6419C18.1897 15.121 14.5666 18.7423 10.0875 18.7423Z" fill="#FFCC00" fill-opacity="0.5"/>
<path d="M10.0789 15.4483C12.1287 15.4483 13.4994 14.0874 13.4994 13.4376C13.4994 13.1997 13.2695 13.0888 13.0539 13.1882C12.334 13.5683 11.4967 14.006 10.0789 14.006C8.66289 14.006 7.82031 13.5638 7.11367 13.1882C6.89004 13.087 6.6584 13.1997 6.6584 13.4376C6.6584 14.0874 8.0291 15.4483 10.0789 15.4483ZM7.20059 9.76217C7.81231 9.76217 8.35391 9.2108 8.35391 8.43834C8.35391 7.65611 7.82031 7.10474 7.20059 7.10474C6.59063 7.10474 6.06055 7.65611 6.06055 8.43834C6.06055 9.2108 6.59063 9.76217 7.20059 9.76217ZM12.9635 9.76217C13.5734 9.76217 14.1168 9.2108 14.1168 8.43834C14.1168 7.65611 13.5814 7.10474 12.9635 7.10474C12.35 7.10474 11.8217 7.65611 11.8217 8.43834C11.8217 9.2108 12.35 9.76217 12.9635 9.76217Z" fill="#FFCC00"/>
</svg>
