<svg width="16" height="14" viewBox="0 0 16 14" fill="none" xmlns="http://www.w3.org/2000/svg">
<path d="M0.0561523 6.99023C0.0561523 6.69141 0.166829 6.43685 0.388184 6.22656L5.81689 0.797852C5.93311 0.681641 6.05208 0.598633 6.17383 0.548828C6.30111 0.49349 6.42839 0.46582 6.55566 0.46582C6.86003 0.46582 7.10628 0.559896 7.29443 0.748047C7.48258 0.936198 7.57666 1.16862 7.57666 1.44531C7.57666 1.59473 7.54622 1.73307 7.48535 1.86035C7.43001 1.9821 7.35531 2.09001 7.26123 2.18408L5.40186 4.06006L2.45508 6.76611L2.07324 6.12695L5.09473 5.96094H14.8896C15.2051 5.96094 15.4596 6.05778 15.6533 6.25146C15.847 6.43962 15.9438 6.68587 15.9438 6.99023C15.9438 7.30013 15.847 7.55192 15.6533 7.74561C15.4596 7.93376 15.2051 8.02783 14.8896 8.02783H5.09473L2.07324 7.85352L2.45508 7.23096L5.40186 9.92041L7.26123 11.7964C7.35531 11.8905 7.43001 11.9984 7.48535 12.1201C7.54622 12.2419 7.57666 12.3802 7.57666 12.5352C7.57666 12.8118 7.48258 13.0443 7.29443 13.2324C7.10628 13.4206 6.86003 13.5146 6.55566 13.5146C6.29004 13.5146 6.04932 13.4067 5.8335 13.1909L0.388184 7.75391C0.166829 7.54362 0.0561523 7.28906 0.0561523 6.99023Z" fill="#231132"/>
</svg>
