<svg width="21" height="21" viewBox="0 0 21 21" fill="none" xmlns="http://www.w3.org/2000/svg">
<path d="M10.0875 20.1848C15.6576 20.1848 20.1767 15.6656 20.1767 10.0973C20.1767 4.53691 15.6576 0.00976562 10.0875 0.00976562C4.52715 0.00976562 0 4.53691 0 10.0973C0 15.6656 4.52715 20.1848 10.0875 20.1848Z" fill="#FF3B30"/>
<path d="M5.70312 10.7767C5.70312 10.6392 5.76523 10.4856 5.87617 10.3632L11.3428 3.55259C11.7961 3.00513 12.5316 3.38482 12.2734 4.06626L10.4912 8.81295H13.8301C14.1113 8.81295 14.3242 9.01607 14.3242 9.28755C14.3242 9.42505 14.2621 9.57857 14.1529 9.70904L8.68458 16.5116C8.23301 17.0591 7.49571 16.6794 7.75391 15.998L9.5379 11.2513H6.19903C5.91602 11.2513 5.70312 11.0481 5.70312 10.7767Z" fill="white"/>
</svg>
