<svg width="21" height="21" viewBox="0 0 21 21" fill="none" xmlns="http://www.w3.org/2000/svg">
<g clip-path="url(#clip0_366_1895)">
<path d="M10.0875 20.175C15.6576 20.175 20.1767 15.6478 20.1767 10.0875C20.1767 4.51914 15.6576 0 10.0875 0C4.52715 0 0 4.51914 0 10.0875C0 15.6478 4.52715 20.175 10.0875 20.175Z" fill="#28CD41"/>
<path d="M16.3158 10.0873C16.3158 10.3461 16.2139 10.5455 15.9992 10.7646L13.1717 13.5721C13.0166 13.7316 12.8152 13.8053 12.5881 13.8053C12.141 13.8053 11.8145 13.4699 11.8145 13.0078C11.8145 12.7603 11.9305 12.5652 12.0768 12.4127L12.7137 11.782L13.8543 10.8508L11.801 10.9474H8.35839L6.30507 10.8508L7.4537 11.782L8.09062 12.4127C8.23691 12.5652 8.35293 12.7603 8.35293 13.0078C8.35293 13.4699 8.02636 13.8053 7.57929 13.8053C7.35215 13.8053 7.15078 13.7316 6.9957 13.5721L4.16816 10.7646C3.95351 10.5455 3.85156 10.3461 3.85156 10.0873C3.85156 9.82051 3.95351 9.61934 4.16816 9.4002L6.9957 6.60254C7.15078 6.44297 7.35215 6.36133 7.57929 6.36133C8.02636 6.36133 8.35293 6.71269 8.35293 7.16679C8.35293 7.41425 8.24492 7.60761 8.09062 7.76992L7.4537 8.39258L6.29706 9.32383L8.35839 9.23516H11.801L13.8623 9.32383L12.7137 8.39258L12.0768 7.76992C11.9225 7.60761 11.8145 7.41425 11.8145 7.16679C11.8145 6.71269 12.141 6.36133 12.5881 6.36133C12.8152 6.36133 13.0166 6.44297 13.1717 6.60254L15.9992 9.4002C16.2139 9.61934 16.3158 9.82051 16.3158 10.0873Z" fill="white"/>
</g>
<defs>
<clipPath id="clip0_366_1895">
<rect width="20.5381" height="20.1848" fill="white"/>
</clipPath>
</defs>
</svg>
