<svg width="21" height="21" viewBox="0 0 21 21" fill="none" xmlns="http://www.w3.org/2000/svg">
<g clip-path="url(#clip0_366_1901)">
<path d="M10.0875 20.175C15.6576 20.175 20.1767 15.6478 20.1767 10.0875C20.1767 4.51914 15.6576 0 10.0875 0C4.52715 0 0 4.51914 0 10.0875C0 15.6478 4.52715 20.175 10.0875 20.175Z" fill="#FF3B30"/>
<path d="M10.0867 15.4379C7.13281 15.4379 4.73828 13.0416 4.73828 10.0877C4.73828 7.13379 7.13281 4.72949 10.0867 4.72949C13.0424 4.72949 15.4449 7.13379 15.4449 10.0877C15.4449 13.0416 13.0424 15.4379 10.0867 15.4379ZM10.0867 13.6424C12.0519 13.6424 13.6432 12.0529 13.6432 10.0877C13.6432 8.12245 12.0519 6.53124 10.0867 6.53124C8.12147 6.53124 6.53202 8.12245 6.53202 10.0877C6.53202 12.0529 8.12147 13.6424 10.0867 13.6424Z" fill="white"/>
</g>
<defs>
<clipPath id="clip0_366_1901">
<rect width="20.5381" height="20.1848" fill="white"/>
</clipPath>
</defs>
</svg>
