<svg width="21" height="21" viewBox="0 0 21 21" fill="none" xmlns="http://www.w3.org/2000/svg">
<g clip-path="url(#clip0_366_1879)">
<path d="M10.0875 20.175C15.6576 20.175 20.1767 15.6478 20.1767 10.0875C20.1767 4.51914 15.6576 0 10.0875 0C4.52715 0 0 4.51914 0 10.0875C0 15.6478 4.52715 20.175 10.0875 20.175Z" fill="#AF52DE"/>
<path d="M4.11041 12.3354C3.98267 11.9833 4.12271 11.7323 4.51216 11.7323C6.43424 11.7323 7.98033 12.5765 8.95416 13.813V15.8702C8.95416 15.9864 8.97896 16.1142 9.02603 16.2126C6.75474 15.872 4.80474 14.3626 4.11041 12.3354ZM6.63443 7.21962C6.63443 6.64169 6.7606 6.06201 7.02955 5.47158C7.14029 5.18779 7.48443 5.1417 7.7106 5.37763L8.81373 6.50654L9.76236 5.279C9.94771 5.0333 10.2643 5.0333 10.4381 5.279L11.3822 6.50654L12.4738 5.37763C12.7 5.1417 13.0459 5.18955 13.1807 5.47158C13.4434 6.06025 13.5518 6.63994 13.5518 7.21962C13.5518 8.99248 12.3914 10.4415 10.5756 10.6624V14.7442C11.4631 13.0151 13.2842 11.7323 15.6705 11.7323C16.052 11.7323 16.2 11.9833 16.0723 12.3354C15.252 14.6757 12.7697 16.3243 10.0922 16.3243C9.8315 16.3243 9.61685 16.1337 9.61685 15.8702V10.6624C7.80103 10.4495 6.63443 8.99248 6.63443 7.21962Z" fill="white"/>
</g>
<defs>
<clipPath id="clip0_366_1879">
<rect width="20.5381" height="20.1848" fill="white"/>
</clipPath>
</defs>
</svg>
