<svg width="21" height="21" viewBox="0 0 21 21" fill="none" xmlns="http://www.w3.org/2000/svg">
<g clip-path="url(#clip0_366_1873)">
<path d="M10.0875 20.175C15.6576 20.175 20.1767 15.6478 20.1767 10.0875C20.1767 4.51914 15.6576 0 10.0875 0C4.52715 0 0 4.51914 0 10.0875C0 15.6478 4.52715 20.175 10.0875 20.175Z" fill="#28CD41"/>
<path d="M3.76562 9.16612C3.76562 7.45011 4.99688 6.32804 6.88242 6.32804H10.6492V5.13956C10.6492 4.78116 10.8799 4.55225 11.2365 4.55225C11.382 4.55225 11.5533 4.6126 11.6758 4.71729L13.9353 6.60928C14.2361 6.85948 14.2379 7.24717 13.9353 7.49737L11.6758 9.3796C11.5533 9.48252 11.382 9.53311 11.2365 9.53311C10.8799 9.53311 10.6492 9.31046 10.6492 8.9378V7.7503H6.77149C5.83184 7.7503 5.19764 8.33917 5.19764 9.238V9.79288C5.19764 10.1788 4.8871 10.4991 4.47538 10.4991C4.08769 10.4991 3.76562 10.1788 3.76562 9.79288V9.16612ZM16.3785 11.0366C16.3785 12.7606 15.1455 13.881 13.2599 13.881H9.49492V15.0729C9.49492 15.4394 9.27051 15.6683 8.90762 15.6683C8.76211 15.6683 8.59707 15.6061 8.47461 15.5015L6.20879 13.6112C5.90801 13.361 5.90801 12.9671 6.20879 12.7151L8.47461 10.8392C8.58906 10.746 8.76211 10.6856 8.90762 10.6856C9.27051 10.6856 9.49492 10.9083 9.49492 11.2729V12.4587H13.3709C14.3105 12.4587 14.9447 11.8698 14.9447 10.9647V10.4161C14.9447 10.0159 15.249 9.70987 15.667 9.70987C16.0724 9.70987 16.3785 10.0124 16.3785 10.4161V11.0366Z" fill="white"/>
</g>
<defs>
<clipPath id="clip0_366_1873">
<rect width="20.5381" height="20.1848" fill="white"/>
</clipPath>
</defs>
</svg>
