<svg width="21" height="21" viewBox="0 0 21 21" fill="none" xmlns="http://www.w3.org/2000/svg">
<g clip-path="url(#clip0_366_1814)">
<path d="M10.0875 20.5446C15.6576 20.5446 20.1767 16.0174 20.1767 10.4571C20.1767 4.88877 15.6576 0.369629 10.0875 0.369629C4.52715 0.369629 0 4.88877 0 10.4571C0 16.0174 4.52715 20.5446 10.0875 20.5446Z" fill="#28CD41"/>
<path d="M5.19121 6.65373C5.25156 6.32541 5.54785 6.29357 5.75898 6.50295C6.41953 7.16623 7.21699 7.24357 7.93184 7.24357C8.59863 7.24357 9.43223 7.05451 10.1691 7.05451C12.3599 7.05451 13.8845 8.14885 13.8845 10.3428C13.8845 10.5461 13.8765 10.7539 13.8552 10.8888C13.8109 11.0582 13.6105 11.1496 13.4402 10.981C11.5097 9.2301 9.59453 10.3498 7.94707 8.94787C7.78887 8.82873 7.64844 8.9381 7.70176 9.07404C8.4584 11.0922 11.4769 9.9924 13.4754 11.8318C13.9486 12.2597 14.8523 13.358 14.8523 13.983C14.8523 14.3904 14.5621 14.6939 14.2195 14.6939C14.059 14.6939 13.8894 14.6052 13.8291 14.3886C13.5885 13.6302 13.3859 13.0797 13.0129 12.5691C12.5611 13.1134 11.6394 13.7537 10.1478 13.7537C7.0627 13.7537 5.04297 11.5021 5.04297 8.11955C5.04297 7.71115 5.10332 7.10744 5.19121 6.65373Z" fill="white"/>
</g>
<defs>
<clipPath id="clip0_366_1814">
<rect width="20.5381" height="20.1848" fill="white" transform="translate(0 0.369629)"/>
</clipPath>
</defs>
</svg>
