<svg width="21" height="21" viewBox="0 0 21 21" fill="none" xmlns="http://www.w3.org/2000/svg">
<g clip-path="url(#clip0_366_1836)">
<path d="M10.0875 20.3696C15.6576 20.3696 20.1767 15.8504 20.1767 10.2821C20.1767 4.72172 15.6576 0.19458 10.0875 0.19458C4.52715 0.19458 0 4.72172 0 10.2821C0 15.8504 4.52715 20.3696 10.0875 20.3696Z" fill="#AF52DE"/>
<path d="M5.20522 15.0053C3.91362 13.7217 4.03256 12.1231 5.50346 10.6424L7.22299 8.94067C7.06674 9.46079 7.09409 10.1073 7.26889 10.4838L6.33041 11.4028C5.32533 12.3883 5.21615 13.4244 6.00287 14.1934C6.78334 14.9641 7.80268 14.8434 8.79526 13.8641L10.1545 12.4987C11.1693 11.5016 11.2945 10.4627 10.5203 9.68403C10.2867 9.45845 9.92983 9.27485 9.5183 9.20923C9.66401 8.8647 10.0199 8.45571 10.3189 8.24106C10.5951 8.31099 10.9885 8.55063 11.3082 8.89614C12.6148 10.1727 12.4914 11.7801 10.9814 13.2848L9.55658 14.683C8.07592 16.1664 6.47455 16.2746 5.20522 15.0053ZM14.6307 5.53833C15.9223 6.82192 15.8033 8.42231 14.3244 9.90923L12.6129 11.603C12.7691 11.0926 12.7418 10.4381 12.567 10.0696L13.5055 9.14263C14.5105 8.15532 14.6117 7.12095 13.833 6.352C13.0525 5.57954 12.0332 5.70024 11.0389 6.6813L9.68139 8.04497C8.65854 9.05005 8.54135 10.0809 9.31381 10.8694C9.54916 11.0869 9.906 11.2705 10.3176 11.3442C10.1719 11.6869 9.80795 12.0977 9.50893 12.3123C9.24077 12.2424 8.84741 11.993 8.52768 11.6573C7.22104 10.3807 7.34448 8.76353 8.85444 7.26861L10.2713 5.86235C11.76 4.37895 13.3533 4.27075 14.6307 5.53833Z" fill="white"/>
</g>
<defs>
<clipPath id="clip0_366_1836">
<rect width="20.5381" height="20.1848" fill="white" transform="translate(0 0.184814)"/>
</clipPath>
</defs>
</svg>
