<svg width="84" height="15" viewBox="0 0 84 15" fill="none" xmlns="http://www.w3.org/2000/svg">
<path d="M71.417 14.8091C71.0044 14.498 70.9219 13.9839 71.1314 13.3682L72.3692 9.70557L69.2271 7.4585C68.6812 7.07129 68.4336 6.60791 68.6114 6.10645C68.7764 5.62402 69.2398 5.39551 69.8936 5.39551H73.7466L74.9209 1.73926C75.1241 1.10449 75.4859 0.742676 76 0.742676C76.5142 0.742676 76.876 1.10449 77.0791 1.73926L78.2535 5.39551H82.1001C82.7666 5.39551 83.2237 5.62402 83.3951 6.11279C83.5601 6.60791 83.3189 7.07129 82.7793 7.4585L79.6309 9.70557L80.8687 13.3682C81.0845 13.9839 80.9956 14.498 80.5894 14.8091C80.1704 15.1265 79.6626 15.0376 79.1167 14.6377L76 12.3462L72.8833 14.6377C72.3438 15.0376 71.8296 15.1265 71.417 14.8091Z" fill="#FF8A15"/>
<path d="M54.417 14.8091C54.0044 14.498 53.9219 13.9839 54.1314 13.3682L55.3692 9.70557L52.2271 7.4585C51.6812 7.07129 51.4336 6.60791 51.6114 6.10645C51.7764 5.62402 52.2398 5.39551 52.8936 5.39551H56.7466L57.9209 1.73926C58.1241 1.10449 58.4859 0.742676 59 0.742676C59.5142 0.742676 59.876 1.10449 60.0791 1.73926L61.2535 5.39551H65.1001C65.7666 5.39551 66.2237 5.62402 66.3951 6.11279C66.5601 6.60791 66.3189 7.07129 65.7793 7.4585L62.6309 9.70557L63.8687 13.3682C64.0845 13.9839 63.9956 14.498 63.5894 14.8091C63.1704 15.1265 62.6626 15.0376 62.1167 14.6377L59 12.3462L55.8833 14.6377C55.3438 15.0376 54.8296 15.1265 54.417 14.8091Z" fill="#FF8A15"/>
<path d="M37.417 14.8091C37.0044 14.498 36.9219 13.9839 37.1314 13.3682L38.3692 9.70557L35.2271 7.4585C34.6812 7.07129 34.4336 6.60791 34.6114 6.10645C34.7764 5.62402 35.2398 5.39551 35.8936 5.39551H39.7466L40.9209 1.73926C41.1241 1.10449 41.4859 0.742676 42 0.742676C42.5142 0.742676 42.876 1.10449 43.0791 1.73926L44.2535 5.39551H48.1001C48.7666 5.39551 49.2237 5.62402 49.3951 6.11279C49.5601 6.60791 49.3189 7.07129 48.7793 7.4585L45.6309 9.70557L46.8687 13.3682C47.0845 13.9839 46.9956 14.498 46.5894 14.8091C46.1704 15.1265 45.6626 15.0376 45.1167 14.6377L42 12.3462L38.8833 14.6377C38.3438 15.0376 37.8296 15.1265 37.417 14.8091Z" fill="#FF8A15"/>
<path d="M20.417 14.8091C20.0044 14.498 19.9219 13.9839 20.1314 13.3682L21.3692 9.70557L18.2271 7.4585C17.6812 7.07129 17.4336 6.60791 17.6114 6.10645C17.7764 5.62402 18.2398 5.39551 18.8936 5.39551H22.7466L23.9209 1.73926C24.1241 1.10449 24.4859 0.742676 25 0.742676C25.5142 0.742676 25.876 1.10449 26.0791 1.73926L27.2535 5.39551H31.1001C31.7666 5.39551 32.2237 5.62402 32.3951 6.11279C32.5601 6.60791 32.3189 7.07129 31.7793 7.4585L28.6309 9.70557L29.8687 13.3682C30.0845 13.9839 29.9956 14.498 29.5894 14.8091C29.1705 15.1265 28.6626 15.0376 28.1167 14.6377L25 12.3462L21.8833 14.6377C21.3438 15.0376 20.8296 15.1265 20.417 14.8091Z" fill="#FF8A15"/>
<path d="M3.41703 14.8091C3.00443 14.498 2.92191 13.9839 3.13139 13.3682L4.36918 9.70557L1.22709 7.4585C0.681191 7.07129 0.433633 6.60791 0.611367 6.10645C0.776406 5.62402 1.23979 5.39551 1.89359 5.39551H5.74662L6.92094 1.73926C7.12406 1.10449 7.48588 0.742676 8.00004 0.742676C8.5142 0.742676 8.87602 1.10449 9.07914 1.73926L10.2535 5.39551H14.1001C14.7666 5.39551 15.2237 5.62402 15.3951 6.11279C15.5601 6.60791 15.3189 7.07129 14.7793 7.4585L11.6309 9.70557L12.8687 13.3682C13.0845 13.9839 12.9956 14.498 12.5894 14.8091C12.1704 15.1265 11.6626 15.0376 11.1167 14.6377L8.00004 12.3462L4.88334 14.6377C4.34379 15.0376 3.82963 15.1265 3.41703 14.8091Z" fill="#FF8A15"/>
</svg>
