<svg width="18" height="18" viewBox="0 0 18 18" fill="none" xmlns="http://www.w3.org/2000/svg">
<path d="M9 17.6577C7.80469 17.6577 6.68408 17.4308 5.63818 16.9771C4.59229 16.5288 3.6709 15.9062 2.87402 15.1094C2.08268 14.318 1.46289 13.4022 1.01465 12.3618C0.566406 11.3159 0.342285 10.1953 0.342285 9C0.342285 7.80469 0.566406 6.68408 1.01465 5.63818C1.46289 4.59229 2.08268 3.67367 2.87402 2.88232C3.6709 2.08545 4.59229 1.46289 5.63818 1.01465C6.68408 0.566406 7.80469 0.342285 9 0.342285C10.1953 0.342285 11.3159 0.566406 12.3618 1.01465C13.4077 1.46289 14.3263 2.08545 15.1177 2.88232C15.909 3.67367 16.5288 4.59229 16.9771 5.63818C17.4308 6.68408 17.6577 7.80469 17.6577 9C17.6577 10.1953 17.4308 11.3159 16.9771 12.3618C16.5288 13.4022 15.909 14.318 15.1177 15.1094C14.3263 15.9062 13.4077 16.5288 12.3618 16.9771C11.3159 17.4308 10.1953 17.6577 9 17.6577ZM13.3413 8.9917C13.3413 8.87549 13.3192 8.76204 13.2749 8.65137C13.2306 8.54069 13.1532 8.42725 13.0425 8.31104L10.3364 5.50537C10.259 5.4279 10.1759 5.36979 10.0874 5.33105C10.0044 5.28678 9.90479 5.26465 9.78857 5.26465C9.57275 5.26465 9.39567 5.34212 9.25732 5.49707C9.11898 5.64648 9.0498 5.82633 9.0498 6.03662C9.0498 6.26351 9.13281 6.45443 9.29883 6.60938L10.5107 7.74658L11.0918 8.18652L9.83008 8.11182H5.44727C5.21484 8.11182 5.01286 8.19759 4.84131 8.36914C4.67529 8.54069 4.59229 8.74821 4.59229 8.9917C4.59229 9.23519 4.67529 9.44271 4.84131 9.61426C5.01286 9.78581 5.21484 9.87158 5.44727 9.87158H9.83008L11.1001 9.79688L10.5107 10.2368L9.29883 11.374C9.13281 11.529 9.0498 11.7227 9.0498 11.9551C9.0498 12.1598 9.11898 12.3397 9.25732 12.4946C9.39567 12.644 9.57275 12.7188 9.78857 12.7188C9.90479 12.7188 10.0044 12.6994 10.0874 12.6606C10.1759 12.6164 10.259 12.5555 10.3364 12.478L13.0425 9.67236C13.1532 9.55615 13.2306 9.44271 13.2749 9.33203C13.3192 9.22135 13.3413 9.10791 13.3413 8.9917Z" fill="white"/>
</svg>
