<svg width="228" height="75" viewBox="0 0 228 75" fill="none" xmlns="http://www.w3.org/2000/svg">
<path d="M33.765 0.00186916C31.9 -0.0267139 27.8333 0.24324 25.1835 2.86972C22.5783 5.45492 22.0668 9.58996 21.9778 11.5876C20.1097 13.49 18.5084 15.5575 17.0437 17.8473C12.1414 25.5362 10.0032 36.0326 11.7094 45.0046C12.6339 49.8669 14.5561 54.5165 17.263 58.661C21.6506 65.3781 27.147 70.2309 33.7523 74.693C34.5878 75.252 35.7284 75.0265 36.2876 74.1881C36.8468 73.3528 36.6212 72.2127 35.7856 71.6569C31.039 68.5985 26.6673 64.8763 23.1089 60.5158C24.869 59.7218 26.9341 58.3974 28.1256 56.2854C30.4862 52.0932 28.5005 46.3861 28.5005 46.3861C28.5005 46.3861 22.6863 47.4754 20.3194 51.6708C19.7252 52.7189 19.4107 53.8686 19.2646 54.996C18.2129 53.1984 17.3011 51.3088 16.5418 49.3397C16.4846 49.1968 16.4274 49.0539 16.3734 48.9078C18.2638 48.6918 20.6053 48.0535 22.3527 46.3448C25.8031 42.9656 25.6188 36.6742 25.6188 36.6742C25.6188 36.6742 19.8269 35.8643 16.3734 39.2467C15.6617 39.9422 15.1057 40.7647 14.6673 41.6254C14.4735 39.92 14.4067 38.1954 14.4703 36.4677C16.5036 36.7059 20.2145 36.779 22.9723 34.8258C26.9691 31.9929 27.452 25.9713 27.452 25.9713C27.452 25.9713 21.4568 24.539 17.4663 27.3656C16.6275 27.9594 15.9413 28.6994 15.3821 29.4902C15.9349 27.0607 16.7197 24.6787 17.7205 22.4048C18.8928 22.9383 23.147 24.6533 26.8071 23.2178C31.0962 21.5377 32.9421 16.1577 32.9421 16.1577C32.9421 16.1577 27.8333 13.509 23.5441 15.1923C22.2733 15.6909 21.2248 16.5071 20.3734 17.4091C21.1518 16.1736 22.0032 14.9827 22.9246 13.852C23.2106 13.5027 23.5124 13.147 23.8269 12.7913C25.8984 12.7182 29.2534 12.2101 31.5505 9.93296C35.0835 6.42992 34.7658 0.0558597 34.7658 0.0558597C34.7658 0.0558597 34.3877 0.0113963 33.765 0.00186916ZM194.236 0.00504508C193.613 0.014573 193.235 0.0590356 193.235 0.0590356C193.235 0.0590356 192.914 6.4331 196.45 9.93931C198.747 12.2196 202.115 12.7214 204.184 12.7976C207.269 16.288 209.645 20.4929 211.234 24.7867C211.821 26.381 212.203 27.9467 212.616 29.5855C212.962 30.9766 213.188 32.4692 213.321 33.9746L213.508 38.3892L213.331 41.0474C211.942 54.256 203.205 64.4793 192.203 71.6569C191.367 72.2158 191.145 73.3528 191.707 74.1881C192.269 75.0265 193.404 75.2488 194.236 74.6899C198.652 71.6664 202.84 68.3412 206.379 64.3808C207.542 65.34 211.246 68.0744 215.227 67.6393C220.044 67.1217 223.443 62.1672 223.443 62.1672C223.443 62.1672 219.037 58.0608 214.22 58.588C212.355 58.7881 210.7 59.6551 209.375 60.6396C209.702 60.1823 210.02 59.7154 210.331 59.2359C211.1 58.0544 211.825 56.8444 212.492 55.6058C213.254 55.9234 218.328 57.8829 222.303 55.6725C226.614 53.2747 227.996 46.8816 227.996 46.8816C227.996 46.8816 222.395 44.3758 218.083 46.7736C216.883 47.4469 215.91 48.4282 215.129 49.489C215.205 49.2603 215.275 49.0285 215.348 48.7935C215.821 47.1769 216.184 45.5413 216.428 43.9057C217.089 43.8994 222.617 43.7565 225.604 40.4313C228.784 36.8997 227.882 31.1004 227.882 31.1004C227.882 31.1004 221.82 31.0369 218.643 34.5717C217.763 35.5499 217.194 36.7027 216.835 37.8524C216.806 36.0517 216.647 34.2605 216.365 32.482C217.33 32.104 222.458 29.9349 223.901 25.9205C225.493 21.4806 222.258 16.4658 222.258 16.4658C222.258 16.4658 216.438 18.6445 214.849 23.0876C214.614 23.7387 214.477 24.4024 214.417 25.063C213.918 23.7133 213.35 22.3825 212.708 21.0804C213.626 19.9816 217.489 15.0494 216.956 10.8127C216.352 6.0107 211.348 2.70457 211.348 2.70457C211.348 2.70457 207.329 7.18579 207.933 11.9909C208.037 12.8167 208.238 13.6329 208.501 14.4142C207.723 13.4487 206.894 12.5213 206.02 11.6321C205.934 9.64712 205.435 5.47397 202.814 2.8729C200.164 0.246415 196.104 -0.023538 194.236 0.00504508ZM16.6561 2.7014C16.6561 2.7014 11.649 6.0107 11.0422 10.8127C10.6482 13.9473 12.6561 17.4567 14.1049 19.521C15.7062 16.4912 17.7205 13.5059 20.1287 10.9175C20.0938 6.54108 16.6561 2.7014 16.6561 2.7014ZM200.606 14.6587C197.604 14.8429 195.062 16.1609 195.062 16.1609C195.062 16.1609 196.905 21.5409 201.197 23.221C203.847 24.2627 206.814 23.6466 208.692 23.0241C208.644 22.9161 208.593 22.8113 208.546 22.7033C207.297 20.0228 205.635 17.3138 203.688 14.9382C202.659 14.6587 201.607 14.5952 200.606 14.6587ZM5.74271 16.4626C5.74271 16.4626 2.5084 21.4774 4.10014 25.9142C5.13588 28.8138 8.09696 30.7543 10.0287 31.7451C10.5878 28.5025 11.4806 25.3107 12.7928 22.2523C10.8356 18.3745 5.74271 16.4626 5.74271 16.4626ZM203.901 25.6124C201.979 25.6347 200.552 25.9713 200.552 25.9713C200.552 25.9713 201.035 31.9929 205.032 34.8258C207.119 36.3089 209.759 36.6202 211.796 36.5852C211.742 34.9846 211.583 33.349 211.319 31.796C211.052 30.2334 210.693 28.6836 210.239 27.1655C208.247 25.8888 205.826 25.5902 203.901 25.6124ZM0.1192 31.1004C0.1192 31.1004 -0.78628 36.8997 2.39402 40.4313C4.44962 42.7243 7.71888 43.5056 9.76813 43.7723C9.74589 43.6072 9.72683 43.442 9.71094 43.2769C9.39641 40.498 9.33922 37.6778 9.6061 34.8671C9.52667 34.7686 9.43771 34.667 9.35828 34.5717C6.18116 31.0337 0.1192 31.1004 0.1192 31.1004ZM204.403 36.5948C203.202 36.5598 202.385 36.6742 202.385 36.6742C202.385 36.6742 202.201 42.9656 205.651 46.3448C206.89 47.5612 208.435 48.2313 209.899 48.5997C210.976 45.7001 211.634 42.629 211.786 39.4023C211.736 39.3483 211.685 39.3006 211.634 39.2467C209.473 37.1315 206.401 36.6551 204.403 36.5948ZM4.88171 45.7509C2.18751 45.9002 0.00164636 46.8784 0.00164636 46.8784C0.00164636 46.8784 1.3837 53.2715 5.69823 55.6725C8.47186 57.2192 11.7856 56.7237 13.7935 56.1775C12.2749 53.3096 11.093 50.2607 10.3527 47.0435C10.2098 46.9482 10.0636 46.8561 9.91428 46.7704C8.29712 45.8716 6.49887 45.662 4.88171 45.7509ZM199.507 46.3861C199.507 46.3861 197.518 52.0932 199.882 56.2854C200.717 57.7749 201.985 58.8675 203.281 59.6646C205.156 57.4542 206.795 55.0818 208.12 52.5728C207.996 52.2647 207.85 51.963 207.688 51.6708C205.318 47.4754 199.507 46.3861 199.507 46.3861ZM12.8817 58.5403C8.42738 58.5594 4.55764 62.1672 4.55764 62.1672C4.55764 62.1672 7.95399 67.1217 12.7705 67.6393C15.7125 67.9633 18.5052 66.55 20.2304 65.4067C18.4512 63.3804 16.8055 61.2176 15.3726 58.9214C14.8611 58.7626 14.3305 58.6483 13.7777 58.588C13.4758 58.553 13.1772 58.5372 12.8817 58.5403Z" fill="url(#paint0_linear_317_1621)"/>
<path d="M43.0694 50.2672C42.3097 49.6945 42.1578 48.7479 42.5435 47.6142L44.8226 40.8704L39.0372 36.733C38.0321 36.0201 37.5763 35.1669 37.9035 34.2436C38.2074 33.3553 39.0606 32.9346 40.2644 32.9346H47.3588L49.521 26.2025C49.895 25.0338 50.5612 24.3676 51.5078 24.3676C52.4545 24.3676 53.1207 25.0338 53.4947 26.2025L55.6569 32.9346H62.7396C63.9668 32.9346 64.8083 33.3553 65.1239 34.2553C65.4278 35.1669 64.9836 36.0201 63.9902 36.733L58.1931 40.8704L60.4722 47.6142C60.8696 48.7479 60.706 49.6945 59.958 50.2672C59.1866 50.8516 58.2516 50.688 57.2465 49.9517L51.5078 45.7325L45.7692 49.9517C44.7758 50.688 43.8291 50.8516 43.0694 50.2672Z" fill="#FFB515"/>
<path d="M73.8208 50.2672C73.0612 49.6945 72.9092 48.7479 73.2949 47.6142L75.574 40.8704L69.7886 36.733C68.7835 36.0201 68.3277 35.1669 68.6549 34.2436C68.9588 33.3553 69.812 32.9346 71.0158 32.9346H78.1102L80.2724 26.2025C80.6464 25.0338 81.3126 24.3676 82.2593 24.3676C83.206 24.3676 83.8722 25.0338 84.2462 26.2025L86.4084 32.9346H93.4911C94.7182 32.9346 95.5597 33.3553 95.8753 34.2553C96.1792 35.1669 95.7351 36.0201 94.7416 36.733L88.9446 40.8704L91.2237 47.6142C91.621 48.7479 91.4574 49.6945 90.7094 50.2672C89.938 50.8516 89.003 50.688 87.9979 49.9517L82.2593 45.7325L76.5207 49.9517C75.5272 50.688 74.5805 50.8516 73.8208 50.2672Z" fill="#FFB515"/>
<path d="M104.572 50.2672C103.813 49.6945 103.661 48.7479 104.046 47.6142L106.325 40.8704L100.54 36.733C99.5349 36.0201 99.0791 35.1669 99.4064 34.2436C99.7102 33.3553 100.563 32.9346 101.767 32.9346H108.862L111.024 26.2025C111.398 25.0338 112.064 24.3676 113.011 24.3676C113.957 24.3676 114.624 25.0338 114.998 26.2025L117.16 32.9346H124.242C125.47 32.9346 126.311 33.3553 126.627 34.2553C126.931 35.1669 126.486 36.0201 125.493 36.733L119.696 40.8704L121.975 47.6142C122.372 48.7479 122.209 49.6945 121.461 50.2672C120.689 50.8516 119.754 50.688 118.749 49.9517L113.011 45.7325L107.272 49.9517C106.279 50.688 105.332 50.8516 104.572 50.2672Z" fill="#FFB515"/>
<path d="M135.324 50.2672C134.564 49.6945 134.412 48.7479 134.798 47.6142L137.077 40.8704L131.291 36.733C130.286 36.0201 129.831 35.1669 130.158 34.2436C130.462 33.3553 131.315 32.9346 132.519 32.9346H139.613L141.775 26.2025C142.149 25.0338 142.815 24.3676 143.762 24.3676C144.709 24.3676 145.375 25.0338 145.749 26.2025L147.911 32.9346H154.994C156.221 32.9346 157.063 33.3553 157.378 34.2553C157.682 35.1669 157.238 36.0201 156.244 36.733L150.447 40.8704L152.727 47.6142C153.124 48.7479 152.96 49.6945 152.212 50.2672C151.441 50.8516 150.506 50.688 149.501 49.9517L143.762 45.7325L138.024 49.9517C137.03 50.688 136.083 50.8516 135.324 50.2672Z" fill="#FFB515"/>
<path d="M166.075 50.2672C165.315 49.6945 165.164 48.7479 165.549 47.6142L167.828 40.8704L162.043 36.733C161.038 36.0201 160.582 35.1669 160.909 34.2436C161.213 33.3553 162.066 32.9346 163.27 32.9346H170.364L172.527 26.2025C172.901 25.0338 173.567 24.3676 174.514 24.3676C175.46 24.3676 176.126 25.0338 176.5 26.2025L178.663 32.9346H185.745C186.973 32.9346 187.814 33.3553 188.13 34.2553C188.433 35.1669 187.989 36.0201 186.996 36.733L181.199 40.8704L183.478 47.6142C183.875 48.7479 183.712 49.6945 182.964 50.2672C182.192 50.8516 181.257 50.688 180.252 49.9517L174.514 45.7325L168.775 49.9517C167.782 50.688 166.835 50.8516 166.075 50.2672Z" fill="#FFB515"/>
<defs>
<linearGradient id="paint0_linear_317_1621" x1="114" y1="0" x2="114" y2="75" gradientUnits="userSpaceOnUse">
<stop stop-color="white"/>
<stop offset="1" stop-color="#999999"/>
</linearGradient>
</defs>
</svg>
