<svg width="28" height="22" viewBox="0 0 28 22" fill="none" xmlns="http://www.w3.org/2000/svg">
<path fill-rule="evenodd" clip-rule="evenodd" d="M19.8958 4.3375L14.5144 0.333801C14.2049 0.103414 13.7953 0.103414 13.4858 0.333801L1.52567 9.23035C0.89153 9.70159 0.76005 10.5975 1.23129 11.2305C1.70252 11.8646 2.59846 11.995 3.23144 11.5237L13.4848 3.8967C13.7943 3.66632 14.2039 3.66632 14.5134 3.8967L24.7679 11.5249C25.4021 11.9961 26.2969 11.8647 26.7681 11.2317C27.2393 10.5976 27.1078 9.70278 26.4737 9.23154L22.6758 6.4064L22.677 2.75061C22.677 2.27587 22.2895 1.88842 21.8148 1.88842H20.7571C20.2824 1.88842 19.8949 2.2759 19.8949 2.75061L19.8958 4.3375ZM23.206 11.8251V20.6252C23.206 21.129 22.7941 21.5409 22.2903 21.5409L17.7222 21.542V16.5539C17.7222 15.5183 16.8751 14.6701 15.8383 14.6701H12.1614C11.1258 14.6701 10.2776 15.5183 10.2776 16.5539V21.542H5.70944C5.20562 21.542 4.79372 21.1301 4.79372 20.6263V11.8251L13.9998 4.9776L23.206 11.8251Z" fill="#12081B"/>
</svg>
