<svg width="25" height="25" viewBox="0 0 25 25" fill="none" xmlns="http://www.w3.org/2000/svg">
<circle cx="12.5" cy="12.5" r="10.5" fill="#32B07F" stroke="#32B07F" stroke-width="4"/>
<path d="M12.037 18.2786C11.5378 18.2786 11.1318 18.1003 10.8188 17.7437L7.76421 14.2375C7.6097 14.0632 7.50273 13.8988 7.44331 13.7443C7.38784 13.5897 7.36011 13.4234 7.36011 13.2451C7.36011 12.8489 7.49283 12.5201 7.75827 12.2586C8.02767 11.9931 8.36641 11.8604 8.77448 11.8604C9.20632 11.8604 9.56288 12.0209 9.84417 12.3418L12.0133 14.8377L16.3931 7.99764C16.5634 7.73615 16.7437 7.55193 16.9339 7.44496C17.124 7.33403 17.3558 7.27856 17.6292 7.27856C18.0333 7.27856 18.372 7.41129 18.6454 7.67673C18.9227 7.93821 19.0613 8.26506 19.0613 8.65728C19.0613 8.79594 19.0376 8.94253 18.99 9.09704C18.9425 9.24759 18.8672 9.39814 18.7642 9.54869L13.3147 17.6427C13.0295 18.0666 12.6036 18.2786 12.037 18.2786Z" fill="white"/>
</svg>
