<svg width="11" height="15" viewBox="0 0 11 15" fill="none" xmlns="http://www.w3.org/2000/svg">
<path d="M1.75732 14.8237C1.20068 14.8237 0.77832 14.6724 0.490234 14.3696C0.202148 14.0718 0.0581055 13.6226 0.0581055 13.022V7.8291C0.0581055 7.2334 0.202148 6.78662 0.490234 6.48877C0.77832 6.19092 1.20068 6.04199 1.75732 6.04199H8.61279C9.16943 6.04199 9.5918 6.19092 9.87988 6.48877C10.168 6.78662 10.312 7.2334 10.312 7.8291V13.022C10.312 13.6226 10.168 14.0718 9.87988 14.3696C9.5918 14.6724 9.16943 14.8237 8.61279 14.8237H1.75732ZM1.39844 6.65723V4.32812C1.39844 3.4248 1.57422 2.67041 1.92578 2.06494C2.28223 1.45459 2.74854 0.995605 3.32471 0.687988C3.90088 0.380371 4.521 0.226562 5.18506 0.226562C5.84912 0.226562 6.46924 0.380371 7.04541 0.687988C7.62158 0.995605 8.08545 1.45459 8.43701 2.06494C8.79346 2.67041 8.97168 3.4248 8.97168 4.32812V6.65723H7.60205V4.18896C7.60205 3.61768 7.48975 3.13672 7.26514 2.74609C7.04541 2.35059 6.75244 2.05029 6.38623 1.84521C6.02002 1.64014 5.61963 1.5376 5.18506 1.5376C4.75049 1.5376 4.3501 1.64014 3.98389 1.84521C3.61768 2.05029 3.32471 2.35059 3.10498 2.74609C2.88525 3.13672 2.77539 3.61768 2.77539 4.18896V6.65723H1.39844Z" fill="#153251" fill-opacity="0.4"/>
</svg>
