<svg width="25" height="25" viewBox="0 0 25 25" fill="none" xmlns="http://www.w3.org/2000/svg">
<path d="M12.4883 24.6445C10.8164 24.6445 9.25 24.3281 7.78906 23.6953C6.32812 23.0703 5.04297 22.2031 3.93359 21.0938C2.82422 19.9844 1.95312 18.6992 1.32031 17.2383C0.695312 15.7773 0.382812 14.2109 0.382812 12.5391C0.382812 10.8672 0.695312 9.30078 1.32031 7.83984C1.95312 6.37109 2.82422 5.08594 3.93359 3.98438C5.04297 2.875 6.32812 2.00781 7.78906 1.38281C9.25 0.75 10.8164 0.433594 12.4883 0.433594C14.1602 0.433594 15.7266 0.75 17.1875 1.38281C18.6562 2.00781 19.9453 2.875 21.0547 3.98438C22.1641 5.08594 23.0312 6.37109 23.6562 7.83984C24.2891 9.30078 24.6055 10.8672 24.6055 12.5391C24.6055 14.2109 24.2891 15.7773 23.6562 17.2383C23.0312 18.6992 22.1641 19.9844 21.0547 21.0938C19.9453 22.2031 18.6562 23.0703 17.1875 23.6953C15.7266 24.3281 14.1602 24.6445 12.4883 24.6445ZM12.2305 14.9766C12.5664 14.9766 12.8359 14.8906 13.0391 14.7188C13.2422 14.5469 13.3516 14.332 13.3672 14.0742C13.3672 14.0508 13.3672 14.0273 13.3672 14.0039C13.3672 13.9727 13.3672 13.9492 13.3672 13.9336C13.3906 13.6133 13.5078 13.3359 13.7188 13.1016C13.9297 12.8672 14.2344 12.6211 14.6328 12.3633C15.2344 11.9805 15.7148 11.582 16.0742 11.168C16.4414 10.7461 16.625 10.1797 16.625 9.46875C16.625 8.78906 16.4375 8.21484 16.0625 7.74609C15.6953 7.26953 15.2109 6.90625 14.6094 6.65625C14.0078 6.40625 13.3438 6.28125 12.6172 6.28125C11.5625 6.28125 10.6992 6.48437 10.0273 6.89062C9.35547 7.29688 8.91797 7.78906 8.71484 8.36719C8.68359 8.46875 8.65625 8.57422 8.63281 8.68359C8.60938 8.79297 8.59766 8.90234 8.59766 9.01172C8.59766 9.30078 8.69531 9.53125 8.89062 9.70312C9.09375 9.875 9.32031 9.96094 9.57031 9.96094C9.79688 9.96094 9.98828 9.91797 10.1445 9.83203C10.3008 9.73828 10.4414 9.61328 10.5664 9.45703L10.7422 9.19922C10.8906 8.98047 11.0508 8.79688 11.2227 8.64844C11.3945 8.5 11.582 8.38672 11.7852 8.30859C11.9961 8.23047 12.2227 8.19141 12.4648 8.19141C12.9492 8.19141 13.3438 8.32031 13.6484 8.57812C13.9531 8.83594 14.1055 9.17188 14.1055 9.58594C14.1055 9.97656 13.9766 10.2969 13.7188 10.5469C13.4609 10.7891 13.0742 11.0898 12.5586 11.4492C12.1289 11.7539 11.7695 12.082 11.4805 12.4336C11.1992 12.7773 11.0586 13.2305 11.0586 13.793C11.0586 13.8086 11.0586 13.8281 11.0586 13.8516C11.0586 13.875 11.0586 13.8984 11.0586 13.9219C11.0586 14.625 11.4492 14.9766 12.2305 14.9766ZM12.207 18.7031C12.5977 18.7031 12.9336 18.5781 13.2148 18.3281C13.4961 18.0703 13.6367 17.75 13.6367 17.3672C13.6367 16.9844 13.4961 16.6641 13.2148 16.4062C12.9414 16.1484 12.6055 16.0195 12.207 16.0195C11.8086 16.0195 11.4688 16.1484 11.1875 16.4062C10.9141 16.6641 10.7773 16.9844 10.7773 17.3672C10.7773 17.75 10.918 18.0703 11.1992 18.3281C11.4805 18.5781 11.8164 18.7031 12.207 18.7031Z" fill="#E5E5E5"/>
</svg>
